<svg xmlns="http://www.w3.org/2000/svg" width="1200" height="700" viewBox="0 0 1200 700">
<style>
  text { font-family: sans-serif; font-size: 12px; fill: #333; }
  .title { font-size: 18px; font-weight: bold; }
  .axis { font-size: 12px; }
  .label { font-size: 11px; }
  .grid { stroke: #e0e0e0; stroke-width: 1; }
</style>
<rect width="1200" height="700" fill="#ffffff"/>
<text x="600" y="35" text-anchor="middle" class="title">Period Benchmark Results (log scale)</text>
<line x1="90" y1="560.0" x2="980" y2="560.0" class="grid"/>
<text x="82" y="564.0" text-anchor="end" class="axis">0.1 ms</text>
<line x1="90" y1="475.1020099311261" x2="980" y2="475.1020099311261" class="grid"/>
<text x="82" y="479.1020099311261" text-anchor="end" class="axis">1 ms</text>
<line x1="90" y1="324.5472289809192" x2="980" y2="324.5472289809192" class="grid"/>
<text x="82" y="328.5472289809192" text-anchor="end" class="axis">10 ms</text>
<line x1="90" y1="173.99244803071235" x2="980" y2="173.99244803071235" class="grid"/>
<text x="82" y="177.99244803071235" text-anchor="end" class="axis">100 ms</text>
<line x1="90" y1="60" x2="90" y2="560" stroke="#333" stroke-width="2"/>
<line x1="90" y1="560" x2="980" y2="560" stroke="#333" stroke-width="2"/>
<rect x="97.06349206349206" y="329.4745493043348" width="12.007936507936508" height="230.5254506956652" fill="#4caf50" rx="2"/>
<text x="103.06746031746032" y="324.4745493043348" text-anchor="middle" class="label">9.3</text>
<rect x="111.19047619047619" y="545.4097342196903" width="12.007936507936508" height="14.590265780309664" fill="#ff9800" rx="2"/>
<text x="117.19444444444444" y="540.4097342196903" text-anchor="middle" class="label">0.3</text>
<rect x="125.31746031746032" y="274.23791904838" width="12.007936507936508" height="285.76208095162" fill="#2196f3" rx="2"/>
<text x="131.32142857142858" y="269.23791904838" text-anchor="middle" class="label">21.6</text>
<rect x="139.44444444444446" y="260.2923017319744" width="12.007936507936508" height="299.7076982680256" fill="#00bcd4" rx="2"/>
<text x="145.4484126984127" y="255.29230173197442" text-anchor="middle" class="label">26.7</text>
<rect x="153.57142857142856" y="197.34787469811846" width="12.007936507936508" height="362.65212530188154" fill="#f44336" rx="2"/>
<text x="159.5753968253968" y="192.34787469811846" text-anchor="middle" class="label">70.0</text>
<rect x="167.6984126984127" y="227.6061832880235" width="12.007936507936508" height="332.3938167119765" fill="#9c27b0" rx="2"/>
<text x="173.70238095238096" y="222.6061832880235" text-anchor="middle" class="label">44.0</text>
<rect x="195.95238095238096" y="282.83210562017933" width="12.007936507936508" height="277.16789437982067" fill="#4caf50" rx="2"/>
<text x="201.95634920634922" y="277.83210562017933" text-anchor="middle" class="label">18.9</text>
<rect x="210.07936507936506" y="527.8684746455745" width="12.007936507936508" height="32.13152535442555" fill="#ff9800" rx="2"/>
<text x="216.08333333333331" y="522.8684746455745" text-anchor="middle" class="label">0.4</text>
<rect x="224.20634920634922" y="244.46401270245127" width="12.007936507936508" height="315.53598729754873" fill="#2196f3" rx="2"/>
<text x="230.21031746031747" y="239.46401270245127" text-anchor="middle" class="label">34.0</text>
<rect x="238.33333333333331" y="234.32850338289774" width="12.007936507936508" height="325.67149661710226" fill="#00bcd4" rx="2"/>
<text x="244.33730158730157" y="229.32850338289774" text-anchor="middle" class="label">39.7</text>
<rect x="252.46031746031747" y="188.41462876917888" width="12.007936507936508" height="371.5853712308211" fill="#f44336" rx="2"/>
<text x="258.4642857142857" y="183.41462876917888" text-anchor="middle" class="label">80.2</text>
<rect x="266.58730158730157" y="209.13850580088933" width="12.007936507936508" height="350.86149419911067" fill="#9c27b0" rx="2"/>
<text x="272.5912698412698" y="204.13850580088933" text-anchor="middle" class="label">58.4</text>
<rect x="294.8412698412698" y="275.66272927410523" width="12.007936507936508" height="284.33727072589477" fill="#4caf50" rx="2"/>
<text x="300.8452380952381" y="270.66272927410523" text-anchor="middle" class="label">21.1</text>
<rect x="308.968253968254" y="534.0837843584312" width="12.007936507936508" height="25.916215641568783" fill="#ff9800" rx="2"/>
<text x="314.97222222222223" y="529.0837843584312" text-anchor="middle" class="label">0.4</text>
<rect x="323.0952380952381" y="236.3763534206874" width="12.007936507936508" height="323.6236465793126" fill="#2196f3" rx="2"/>
<text x="329.0992063492063" y="231.3763534206874" text-anchor="middle" class="label">38.5</text>
<rect x="337.22222222222223" y="257.4158102181757" width="12.007936507936508" height="302.5841897818243" fill="#00bcd4" rx="2"/>
<text x="343.2261904761905" y="252.4158102181757" text-anchor="middle" class="label">27.9</text>
<rect x="351.3492063492063" y="199.11572289287727" width="12.007936507936508" height="360.8842771071227" fill="#f44336" rx="2"/>
<text x="357.3531746031746" y="194.11572289287727" text-anchor="middle" class="label">68.1</text>
<rect x="365.4761904761905" y="223.51633588876" width="12.007936507936508" height="336.48366411124" fill="#9c27b0" rx="2"/>
<text x="371.48015873015873" y="218.51633588876" text-anchor="middle" class="label">46.9</text>
<rect x="393.7301587301587" y="295.8534214139864" width="12.007936507936508" height="264.1465785860136" fill="#4caf50" rx="2"/>
<text x="399.73412698412693" y="290.8534214139864" text-anchor="middle" class="label">15.5</text>
<rect x="407.85714285714283" y="533.6821348960316" width="12.007936507936508" height="26.317865103968415" fill="#ff9800" rx="2"/>
<text x="413.8611111111111" y="528.6821348960316" text-anchor="middle" class="label">0.4</text>
<rect x="421.98412698412693" y="248.41772265294622" width="12.007936507936508" height="311.5822773470538" fill="#2196f3" rx="2"/>
<text x="427.9880952380952" y="243.41772265294622" text-anchor="middle" class="label">32.0</text>
<rect x="436.1111111111111" y="245.33109714338713" width="12.007936507936508" height="314.6689028566129" fill="#00bcd4" rx="2"/>
<text x="442.11507936507934" y="240.33109714338713" text-anchor="middle" class="label">33.6</text>
<rect x="450.2380952380952" y="196.08490454207492" width="12.007936507936508" height="363.9150954579251" fill="#f44336" rx="2"/>
<text x="456.24206349206344" y="191.08490454207492" text-anchor="middle" class="label">71.3</text>
<rect x="464.36507936507934" y="209.61931441595533" width="12.007936507936508" height="350.38068558404467" fill="#9c27b0" rx="2"/>
<text x="470.3690476190476" y="204.61931441595533" text-anchor="middle" class="label">58.0</text>
<rect x="492.6190476190476" y="333.65417230907894" width="12.007936507936508" height="226.34582769092106" fill="#4caf50" rx="2"/>
<text x="498.62301587301585" y="328.65417230907894" text-anchor="middle" class="label">8.7</text>
<rect x="506.74603174603175" y="444.6837323651288" width="12.007936507936508" height="115.31626763487122" fill="#ff9800" rx="2"/>
<text x="512.75" y="439.6837323651288" text-anchor="middle" class="label">1.6</text>
<rect x="520.8730158730159" y="324.74210518819325" width="12.007936507936508" height="235.25789481180675" fill="#2196f3" rx="2"/>
<text x="526.8769841269842" y="319.74210518819325" text-anchor="middle" class="label">10.0</text>
<rect x="535.0" y="71.92111515406458" width="12.007936507936508" height="488.0788848459354" fill="#00bcd4" rx="2"/>
<text x="541.0039682539683" y="86.92111515406458" text-anchor="middle" class="label">476.4</text>
<rect x="549.1269841269841" y="208.86488813886973" width="12.007936507936508" height="351.13511186113027" fill="#f44336" rx="2"/>
<text x="555.1309523809524" y="203.86488813886973" text-anchor="middle" class="label">58.7</text>
<rect x="563.2539682539682" y="239.5786088092998" width="12.007936507936508" height="320.4213911907002" fill="#9c27b0" rx="2"/>
<text x="569.2579365079365" y="234.5786088092998" text-anchor="middle" class="label">36.7</text>
<rect x="591.5079365079365" y="316.16671772980567" width="12.007936507936508" height="243.83328227019433" fill="#4caf50" rx="2"/>
<text x="597.5119047619048" y="311.16671772980567" text-anchor="middle" class="label">11.4</text>
<rect x="605.6349206349206" y="469.4414826636517" width="12.007936507936508" height="90.5585173363483" fill="#ff9800" rx="2"/>
<text x="611.6388888888889" y="464.4414826636517" text-anchor="middle" class="label">1.1</text>
<rect x="619.7619047619048" y="328.30007861807957" width="12.007936507936508" height="231.69992138192043" fill="#2196f3" rx="2"/>
<text x="625.7658730158731" y="323.30007861807957" text-anchor="middle" class="label">9.4</text>
<rect x="633.8888888888889" y="280.1577304072449" width="12.007936507936508" height="279.8422695927551" fill="#00bcd4" rx="2"/>
<text x="639.8928571428572" y="275.1577304072449" text-anchor="middle" class="label">19.7</text>
<rect x="648.015873015873" y="202.00721707911737" width="12.007936507936508" height="357.99278292088263" fill="#f44336" rx="2"/>
<text x="654.0198412698413" y="197.00721707911737" text-anchor="middle" class="label">65.2</text>
<rect x="662.1428571428571" y="241.08412939748808" width="12.007936507936508" height="318.9158706025119" fill="#9c27b0" rx="2"/>
<text x="668.1468253968254" y="236.08412939748808" text-anchor="middle" class="label">35.8</text>
<rect x="690.3968253968253" y="336.35117444652127" width="12.007936507936508" height="223.64882555347873" fill="#4caf50" rx="2"/>
<text x="696.4007936507936" y="331.35117444652127" text-anchor="middle" class="label">8.3</text>
<rect x="704.5238095238094" y="535.9505626094532" width="12.007936507936508" height="24.049437390546814" fill="#ff9800" rx="2"/>
<text x="710.5277777777777" y="530.9505626094532" text-anchor="middle" class="label">0.4</text>
<rect x="718.6507936507936" y="332.31117929750604" width="12.007936507936508" height="227.68882070249396" fill="#2196f3" rx="2"/>
<text x="724.6547619047619" y="327.31117929750604" text-anchor="middle" class="label">8.9</text>
<rect x="732.7777777777777" y="290.6404359460586" width="12.007936507936508" height="269.3595640539414" fill="#00bcd4" rx="2"/>
<text x="738.781746031746" y="285.6404359460586" text-anchor="middle" class="label">16.8</text>
<rect x="746.9047619047618" y="219.30992548788367" width="12.007936507936508" height="340.6900745121163" fill="#f44336" rx="2"/>
<text x="752.9087301587301" y="214.30992548788367" text-anchor="middle" class="label">50.0</text>
<rect x="761.0317460317459" y="243.68264812371416" width="12.007936507936508" height="316.31735187628584" fill="#9c27b0" rx="2"/>
<text x="767.0357142857142" y="238.68264812371416" text-anchor="middle" class="label">34.4</text>
<rect x="789.2857142857142" y="335.45677723704205" width="12.007936507936508" height="224.54322276295795" fill="#4caf50" rx="2"/>
<text x="795.2896825396825" y="330.45677723704205" text-anchor="middle" class="label">8.5</text>
<rect x="803.4126984126983" y="480.24691113487495" width="12.007936507936508" height="79.75308886512505" fill="#ff9800" rx="2"/>
<text x="809.4166666666666" y="475.24691113487495" text-anchor="middle" class="label">0.9</text>
<rect x="817.5396825396825" y="330.848388237502" width="12.007936507936508" height="229.15161176249802" fill="#2196f3" rx="2"/>
<text x="823.5436507936508" y="325.848388237502" text-anchor="middle" class="label">9.1</text>
<rect x="831.6666666666666" y="289.89047676545255" width="12.007936507936508" height="270.10952323454745" fill="#00bcd4" rx="2"/>
<text x="837.6706349206349" y="284.89047676545255" text-anchor="middle" class="label">17.0</text>
<rect x="845.7936507936507" y="218.57103405853422" width="12.007936507936508" height="341.4289659414658" fill="#f44336" rx="2"/>
<text x="851.797619047619" y="213.57103405853422" text-anchor="middle" class="label">50.6</text>
<rect x="859.9206349206348" y="231.12165810117125" width="12.007936507936508" height="328.87834189882875" fill="#9c27b0" rx="2"/>
<text x="865.9246031746031" y="226.12165810117125" text-anchor="middle" class="label">41.7</text>
<rect x="888.1746031746031" y="249.4471666958513" width="12.007936507936508" height="310.5528333041487" fill="#4caf50" rx="2"/>
<text x="894.1785714285714" y="244.4471666958513" text-anchor="middle" class="label">31.5</text>
<rect x="902.3015873015872" y="534.9565940169487" width="12.007936507936508" height="25.043405983051343" fill="#ff9800" rx="2"/>
<text x="908.3055555555555" y="529.9565940169487" text-anchor="middle" class="label">0.4</text>
<rect x="916.4285714285714" y="149.47967895565745" width="12.007936507936508" height="410.52032104434255" fill="#2196f3" rx="2"/>
<text x="922.4325396825398" y="144.47967895565745" text-anchor="middle" class="label">145.5</text>
<rect x="930.5555555555555" y="263.37839028742053" width="12.007936507936508" height="296.62160971257947" fill="#00bcd4" rx="2"/>
<text x="936.5595238095239" y="258.37839028742053" text-anchor="middle" class="label">25.5</text>
<rect x="944.6825396825396" y="194.074192384267" width="12.007936507936508" height="365.925807615733" fill="#f44336" rx="2"/>
<text x="950.686507936508" y="189.074192384267" text-anchor="middle" class="label">73.6</text>
<rect x="958.8095238095237" y="172.4619847380934" width="12.007936507936508" height="387.5380152619066" fill="#9c27b0" rx="2"/>
<text x="964.813492063492" y="167.4619847380934" text-anchor="middle" class="label">102.4</text>
<text x="139.44444444444446" y="580" text-anchor="middle" transform="rotate(-30 139.44444444444446 580)" class="axis">sum</text>
<text x="238.33333333333331" y="580" text-anchor="middle" transform="rotate(-30 238.33333333333331 580)" class="axis">div3or5</text>
<text x="337.22222222222223" y="580" text-anchor="middle" transform="rotate(-30 337.22222222222223 580)" class="axis">count_div3and5</text>
<text x="436.1111111111111" y="580" text-anchor="middle" transform="rotate(-30 436.1111111111111 580)" class="axis">sum_multiples_3or5</text>
<text x="535.0" y="580" text-anchor="middle" transform="rotate(-30 535.0 580)" class="axis">string_concat</text>
<text x="633.8888888888889" y="580" text-anchor="middle" transform="rotate(-30 633.8888888888889 580)" class="axis">list_grow</text>
<text x="732.7777777777777" y="580" text-anchor="middle" transform="rotate(-30 732.7777777777777 580)" class="axis">count_calls</text>
<text x="831.6666666666666" y="580" text-anchor="middle" transform="rotate(-30 831.6666666666666 580)" class="axis">class_new</text>
<text x="930.5555555555555" y="580" text-anchor="middle" transform="rotate(-30 930.5555555555555 580)" class="axis">try_catch</text>
<text x="1010" y="70" class="axis" font-weight="bold">Language</text>
<rect x="1010" y="70" width="14" height="14" fill="#4caf50" rx="2"/>
<text x="1032" y="82" class="axis">C (Release)</text>
<rect x="1010" y="92" width="14" height="14" fill="#ff9800" rx="2"/>
<text x="1032" y="104" class="axis">Period</text>
<rect x="1010" y="114" width="14" height="14" fill="#2196f3" rx="2"/>
<text x="1032" y="126" class="axis">Rust</text>
<rect x="1010" y="136" width="14" height="14" fill="#00bcd4" rx="2"/>
<text x="1032" y="148" class="axis">Go</text>
<rect x="1010" y="158" width="14" height="14" fill="#f44336" rx="2"/>
<text x="1032" y="170" class="axis">Java</text>
<rect x="1010" y="180" width="14" height="14" fill="#9c27b0" rx="2"/>
<text x="1032" y="192" class="axis">C#</text>
</svg>