<svg xmlns="http://www.w3.org/2000/svg" width="1200" height="700" viewBox="0 0 1200 700">
<style>
  text { font-family: sans-serif; font-size: 12px; fill: #333; }
  .title { font-size: 18px; font-weight: bold; }
  .axis { font-size: 12px; }
  .label { font-size: 11px; }
  .grid { stroke: #e0e0e0; stroke-width: 1; }
</style>
<rect width="1200" height="700" fill="#ffffff"/>
<text x="600" y="35" text-anchor="middle" class="title">Period Benchmark Results (log scale)</text>
<line x1="90" y1="560.0" x2="980" y2="560.0" class="grid"/>
<text x="82" y="564.0" text-anchor="end" class="axis">10 ms</text>
<line x1="90" y1="306.49175943229346" x2="980" y2="306.49175943229346" class="grid"/>
<text x="82" y="310.49175943229346" text-anchor="end" class="axis">100 ms</text>
<line x1="90" y1="60" x2="90" y2="560" stroke="#333" stroke-width="2"/>
<line x1="90" y1="560" x2="980" y2="560" stroke="#333" stroke-width="2"/>
<rect x="97.06349206349206" y="531.2430978546855" width="12.007936507936508" height="28.756902145314484" fill="#4caf50" rx="2"/>
<text x="103.06746031746032" y="526.2430978546855" text-anchor="middle" class="label">14.6</text>
<rect x="111.19047619047619" y="514.8812801180143" width="12.007936507936508" height="45.118719881985726" fill="#ff9800" rx="2"/>
<text x="117.19444444444444" y="509.8812801180143" text-anchor="middle" class="label">16.8</text>
<rect x="125.31746031746032" y="471.14509386875255" width="12.007936507936508" height="88.85490613124745" fill="#2196f3" rx="2"/>
<text x="131.32142857142858" y="466.14509386875255" text-anchor="middle" class="label">24.5</text>
<rect x="139.44444444444446" y="439.5400662500341" width="12.007936507936508" height="120.4599337499659" fill="#00bcd4" rx="2"/>
<text x="145.4484126984127" y="434.5400662500341" text-anchor="middle" class="label">32.0</text>
<rect x="153.57142857142856" y="340.5542532650728" width="12.007936507936508" height="219.44574673492718" fill="#f44336" rx="2"/>
<text x="159.5753968253968" y="335.5542532650728" text-anchor="middle" class="label">74.7</text>
<rect x="167.6984126984127" y="389.08077324429405" width="12.007936507936508" height="170.91922675570595" fill="#9c27b0" rx="2"/>
<text x="173.70238095238096" y="384.08077324429405" text-anchor="middle" class="label">49.3</text>
<rect x="195.95238095238096" y="490.55296196545675" width="12.007936507936508" height="69.44703803454325" fill="#4caf50" rx="2"/>
<text x="201.95634920634922" y="485.55296196545675" text-anchor="middle" class="label">20.7</text>
<rect x="210.07936507936506" y="531.9559820382767" width="12.007936507936508" height="28.044017961723284" fill="#ff9800" rx="2"/>
<text x="216.08333333333331" y="526.9559820382767" text-anchor="middle" class="label">14.5</text>
<rect x="224.20634920634922" y="408.09205015491597" width="12.007936507936508" height="151.90794984508403" fill="#2196f3" rx="2"/>
<text x="230.21031746031747" y="403.09205015491597" text-anchor="middle" class="label">41.9</text>
<rect x="238.33333333333331" y="398.5359754111955" width="12.007936507936508" height="161.46402458880448" fill="#00bcd4" rx="2"/>
<text x="244.33730158730157" y="393.5359754111955" text-anchor="middle" class="label">45.5</text>
<rect x="252.46031746031747" y="326.3681465757346" width="12.007936507936508" height="233.6318534242654" fill="#f44336" rx="2"/>
<text x="258.4642857142857" y="321.3681465757346" text-anchor="middle" class="label">84.4</text>
<rect x="266.58730158730157" y="346.27878845661786" width="12.007936507936508" height="213.72121154338214" fill="#9c27b0" rx="2"/>
<text x="272.5912698412698" y="341.27878845661786" text-anchor="middle" class="label">71.2</text>
<rect x="294.8412698412698" y="476.9935201945907" width="12.007936507936508" height="83.0064798054093" fill="#4caf50" rx="2"/>
<text x="300.8452380952381" y="471.9935201945907" text-anchor="middle" class="label">23.3</text>
<rect x="308.968253968254" y="507.26880249779424" width="12.007936507936508" height="52.73119750220576" fill="#ff9800" rx="2"/>
<text x="314.97222222222223" y="502.26880249779424" text-anchor="middle" class="label">18.0</text>
<rect x="323.0952380952381" y="391.7322294605223" width="12.007936507936508" height="168.26777053947768" fill="#2196f3" rx="2"/>
<text x="329.0992063492063" y="386.7322294605223" text-anchor="middle" class="label">48.2</text>
<rect x="337.22222222222223" y="440.8935738310893" width="12.007936507936508" height="119.10642616891067" fill="#00bcd4" rx="2"/>
<text x="343.2261904761905" y="435.8935738310893" text-anchor="middle" class="label">31.7</text>
<rect x="351.3492063492063" y="331.393984371359" width="12.007936507936508" height="228.606015628641" fill="#f44336" rx="2"/>
<text x="357.3531746031746" y="326.393984371359" text-anchor="middle" class="label">80.8</text>
<rect x="365.4761904761905" y="368.0644533168854" width="12.007936507936508" height="191.93554668311458" fill="#9c27b0" rx="2"/>
<text x="371.48015873015873" y="363.0644533168854" text-anchor="middle" class="label">59.1</text>
<rect x="393.7301587301587" y="496.671251995287" width="12.007936507936508" height="63.32874800471302" fill="#4caf50" rx="2"/>
<text x="399.73412698412693" y="491.671251995287" text-anchor="middle" class="label">19.7</text>
<rect x="407.85714285714283" y="526.9644571894625" width="12.007936507936508" height="33.03554281053755" fill="#ff9800" rx="2"/>
<text x="413.8611111111111" y="521.9644571894625" text-anchor="middle" class="label">15.2</text>
<rect x="421.98412698412693" y="416.99114058172984" width="12.007936507936508" height="143.00885941827016" fill="#2196f3" rx="2"/>
<text x="427.9880952380952" y="411.99114058172984" text-anchor="middle" class="label">38.9</text>
<rect x="436.1111111111111" y="404.4673819810113" width="12.007936507936508" height="155.53261801898873" fill="#00bcd4" rx="2"/>
<text x="442.11507936507934" y="399.4673819810113" text-anchor="middle" class="label">43.3</text>
<rect x="450.2380952380952" y="321.98961586146976" width="12.007936507936508" height="238.01038413853024" fill="#f44336" rx="2"/>
<text x="456.24206349206344" y="316.98961586146976" text-anchor="middle" class="label">87.6</text>
<rect x="464.36507936507934" y="363.211410256328" width="12.007936507936508" height="196.788589743672" fill="#9c27b0" rx="2"/>
<text x="470.3690476190476" y="358.211410256328" text-anchor="middle" class="label">61.6</text>
<rect x="492.6190476190476" y="515.9615482756972" width="12.007936507936508" height="44.03845172430283" fill="#4caf50" rx="2"/>
<text x="498.62301587301585" y="510.96154827569717" text-anchor="middle" class="label">16.7</text>
<rect x="506.74603174603175" y="415.1086773529469" width="12.007936507936508" height="144.89132264705307" fill="#ff9800" rx="2"/>
<text x="512.75" y="410.1086773529469" text-anchor="middle" class="label">39.5</text>
<rect x="520.8730158730159" y="527.4941024031873" width="12.007936507936508" height="32.5058975968127" fill="#2196f3" rx="2"/>
<text x="526.8769841269842" y="522.4941024031873" text-anchor="middle" class="label">15.1</text>
<rect x="535.0" y="81.31820926811417" width="12.007936507936508" height="478.6817907318858" fill="#00bcd4" rx="2"/>
<text x="541.0039682539683" y="76.31820926811417" text-anchor="middle" class="label">686.0</text>
<rect x="549.1269841269841" y="344.4055842022334" width="12.007936507936508" height="215.5944157977666" fill="#f44336" rx="2"/>
<text x="555.1309523809524" y="339.4055842022334" text-anchor="middle" class="label">72.3</text>
<rect x="563.2539682539682" y="390.6333401841032" width="12.007936507936508" height="169.3666598158968" fill="#9c27b0" rx="2"/>
<text x="569.2579365079365" y="385.6333401841032" text-anchor="middle" class="label">48.7</text>
<rect x="591.5079365079365" y="533.592922306625" width="12.007936507936508" height="26.40707769337496" fill="#4caf50" rx="2"/>
<text x="597.5119047619048" y="528.592922306625" text-anchor="middle" class="label">14.3</text>
<rect x="605.6349206349206" y="500.39656716015054" width="12.007936507936508" height="59.60343283984946" fill="#ff9800" rx="2"/>
<text x="611.6388888888889" y="495.39656716015054" text-anchor="middle" class="label">19.0</text>
<rect x="619.7619047619048" y="529.6555340217884" width="12.007936507936508" height="30.344465978211588" fill="#2196f3" rx="2"/>
<text x="625.7658730158731" y="524.6555340217884" text-anchor="middle" class="label">14.8</text>
<rect x="633.8888888888889" y="459.291249321644" width="12.007936507936508" height="100.70875067835601" fill="#00bcd4" rx="2"/>
<text x="639.8928571428572" y="454.291249321644" text-anchor="middle" class="label">27.1</text>
<rect x="648.015873015873" y="329.86213044259426" width="12.007936507936508" height="230.13786955740574" fill="#f44336" rx="2"/>
<text x="654.0198412698413" y="324.86213044259426" text-anchor="middle" class="label">81.9</text>
<rect x="662.1428571428571" y="380.9492436435164" width="12.007936507936508" height="179.0507563564836" fill="#9c27b0" rx="2"/>
<text x="668.1468253968254" y="375.9492436435164" text-anchor="middle" class="label">52.9</text>
<rect x="690.3968253968253" y="533.9086205306895" width="12.007936507936508" height="26.091379469310482" fill="#4caf50" rx="2"/>
<text x="696.4007936507936" y="528.9086205306895" text-anchor="middle" class="label">14.3</text>
<rect x="704.5238095238094" y="528.0177600723609" width="12.007936507936508" height="31.982239927639057" fill="#ff9800" rx="2"/>
<text x="710.5277777777777" y="523.0177600723609" text-anchor="middle" class="label">15.0</text>
<rect x="718.6507936507936" y="526.6365833347855" width="12.007936507936508" height="33.36341666521446" fill="#2196f3" rx="2"/>
<text x="724.6547619047619" y="521.6365833347855" text-anchor="middle" class="label">15.2</text>
<rect x="732.7777777777777" y="462.52177417104133" width="12.007936507936508" height="97.47822582895867" fill="#00bcd4" rx="2"/>
<text x="738.781746031746" y="457.52177417104133" text-anchor="middle" class="label">26.3</text>
<rect x="746.9047619047618" y="347.5788466818509" width="12.007936507936508" height="212.4211533181491" fill="#f44336" rx="2"/>
<text x="752.9087301587301" y="342.5788466818509" text-anchor="middle" class="label">70.4</text>
<rect x="761.0317460317459" y="392.90276032091685" width="12.007936507936508" height="167.09723967908315" fill="#9c27b0" rx="2"/>
<text x="767.0357142857142" y="387.90276032091685" text-anchor="middle" class="label">47.8</text>
<rect x="789.2857142857142" y="521.1681534057354" width="12.007936507936508" height="38.83184659426456" fill="#4caf50" rx="2"/>
<text x="795.2896825396825" y="516.1681534057354" text-anchor="middle" class="label">15.9</text>
<rect x="803.4126984126983" y="354.9024958192241" width="12.007936507936508" height="205.0975041807759" fill="#ff9800" rx="2"/>
<text x="809.4166666666666" y="349.9024958192241" text-anchor="middle" class="label">66.1</text>
<rect x="817.5396825396825" y="526.7995204403107" width="12.007936507936508" height="33.200479559689256" fill="#2196f3" rx="2"/>
<text x="823.5436507936508" y="521.7995204403107" text-anchor="middle" class="label">15.2</text>
<rect x="831.6666666666666" y="460.9894389774873" width="12.007936507936508" height="99.01056102251272" fill="#00bcd4" rx="2"/>
<text x="837.6706349206349" y="455.9894389774873" text-anchor="middle" class="label">26.7</text>
<rect x="845.7936507936507" y="350.8086219095431" width="12.007936507936508" height="209.1913780904569" fill="#f44336" rx="2"/>
<text x="851.797619047619" y="345.8086219095431" text-anchor="middle" class="label">68.5</text>
<rect x="859.9206349206348" y="394.7466187375646" width="12.007936507936508" height="165.25338126243543" fill="#9c27b0" rx="2"/>
<text x="865.9246031746031" y="389.7466187375646" text-anchor="middle" class="label">47.0</text>
<rect x="888.1746031746031" y="255.7357915726953" width="12.007936507936508" height="304.2642084273047" fill="#ff9800" rx="2"/>
<text x="894.1785714285714" y="250.7357915726953" text-anchor="middle" class="label">154.4</text>
<rect x="902.3015873015872" y="307.1252493138848" width="12.007936507936508" height="252.8747506861152" fill="#f44336" rx="2"/>
<text x="908.3055555555555" y="302.1252493138848" text-anchor="middle" class="label">99.5</text>
<rect x="916.4285714285714" y="273.7343506804845" width="12.007936507936508" height="286.2656493195155" fill="#9c27b0" rx="2"/>
<text x="922.4325396825398" y="268.7343506804845" text-anchor="middle" class="label">132.3</text>
<text x="139.44444444444446" y="580" text-anchor="middle" transform="rotate(-30 139.44444444444446 580)" class="axis">sum</text>
<text x="238.33333333333331" y="580" text-anchor="middle" transform="rotate(-30 238.33333333333331 580)" class="axis">div3or5</text>
<text x="337.22222222222223" y="580" text-anchor="middle" transform="rotate(-30 337.22222222222223 580)" class="axis">count_div3and5</text>
<text x="436.1111111111111" y="580" text-anchor="middle" transform="rotate(-30 436.1111111111111 580)" class="axis">sum_multiples_3or5</text>
<text x="535.0" y="580" text-anchor="middle" transform="rotate(-30 535.0 580)" class="axis">string_concat</text>
<text x="633.8888888888889" y="580" text-anchor="middle" transform="rotate(-30 633.8888888888889 580)" class="axis">list_grow</text>
<text x="732.7777777777777" y="580" text-anchor="middle" transform="rotate(-30 732.7777777777777 580)" class="axis">count_calls</text>
<text x="831.6666666666666" y="580" text-anchor="middle" transform="rotate(-30 831.6666666666666 580)" class="axis">class_new</text>
<text x="930.5555555555555" y="580" text-anchor="middle" transform="rotate(-30 930.5555555555555 580)" class="axis">try_catch</text>
<text x="1010" y="70" class="axis" font-weight="bold">Language</text>
<rect x="1010" y="70" width="14" height="14" fill="#4caf50" rx="2"/>
<text x="1032" y="82" class="axis">C (Release)</text>
<rect x="1010" y="92" width="14" height="14" fill="#ff9800" rx="2"/>
<text x="1032" y="104" class="axis">Period</text>
<rect x="1010" y="114" width="14" height="14" fill="#2196f3" rx="2"/>
<text x="1032" y="126" class="axis">Rust</text>
<rect x="1010" y="136" width="14" height="14" fill="#00bcd4" rx="2"/>
<text x="1032" y="148" class="axis">Go</text>
<rect x="1010" y="158" width="14" height="14" fill="#f44336" rx="2"/>
<text x="1032" y="170" class="axis">Java</text>
<rect x="1010" y="180" width="14" height="14" fill="#9c27b0" rx="2"/>
<text x="1032" y="192" class="axis">C#</text>
</svg>