<svg xmlns="http://www.w3.org/2000/svg" width="980" height="500" viewBox="0 0 980 500">
<style>
  text { font-family: sans-serif; font-size: 12px; fill: #333; }
  .title { font-size: 18px; font-weight: bold; }
  .axis { font-size: 12px; }
  .label { font-size: 11px; }
  .grid { stroke: #e0e0e0; stroke-width: 1; }
</style>
<rect width="980" height="500" fill="#ffffff"/>
<text x="490" y="27" text-anchor="middle" class="title">Period Benchmark Results (log scale)</text>
<line x1="75" y1="440.0" x2="870" y2="440.0" class="grid"/>
<text x="67" y="444.0" text-anchor="end" class="axis">0.1 ms</text>
<line x1="75" y1="368.6228895676758" x2="870" y2="368.6228895676758" class="grid"/>
<text x="67" y="372.6228895676758" text-anchor="end" class="axis">1 ms</text>
<line x1="75" y1="256.3889211885187" x2="870" y2="256.3889211885187" class="grid"/>
<text x="67" y="260.3889211885187" text-anchor="end" class="axis">10 ms</text>
<line x1="75" y1="144.15495280936148" x2="870" y2="144.15495280936148" class="grid"/>
<text x="67" y="148.15495280936148" text-anchor="end" class="axis">100 ms</text>
<line x1="75" y1="45" x2="75" y2="440" stroke="#333" stroke-width="2"/>
<line x1="75" y1="440" x2="870" y2="440" stroke="#333" stroke-width="2"/>
<rect x="81.30952380952381" y="429.1234046644301" width="10.726190476190476" height="10.876595335569903" fill="#ff9800" rx="2"/>
<text x="86.67261904761905" y="424.1234046644301" text-anchor="middle" class="label">0.3</text>
<rect x="93.92857142857143" y="259.1264012102117" width="10.726190476190476" height="180.87359878978828" fill="#4caf50" rx="2"/>
<text x="99.29166666666667" y="254.12640121021172" text-anchor="middle" class="label">9.5</text>
<rect x="106.54761904761905" y="221.76477058969084" width="10.726190476190476" height="218.23522941030916" fill="#2196f3" rx="2"/>
<text x="111.91071428571429" y="216.76477058969084" text-anchor="middle" class="label">20.3</text>
<rect x="119.16666666666666" y="209.0312365952866" width="10.726190476190476" height="230.9687634047134" fill="#00bcd4" rx="2"/>
<text x="124.5297619047619" y="204.0312365952866" text-anchor="middle" class="label">26.4</text>
<rect x="131.78571428571428" y="185.06103776387883" width="10.726190476190476" height="254.93896223612117" fill="#9c27b0" rx="2"/>
<text x="137.14880952380952" y="180.06103776387883" text-anchor="middle" class="label">43.2</text>
<rect x="144.4047619047619" y="165.17368562912668" width="10.726190476190476" height="274.8263143708733" fill="#f44336" rx="2"/>
<text x="149.76785714285714" y="160.17368562912668" text-anchor="middle" class="label">65.0</text>
<rect x="169.6428571428571" y="400.3621683785275" width="10.726190476190476" height="39.637831621472515" fill="#ff9800" rx="2"/>
<text x="175.00595238095235" y="395.3621683785275" text-anchor="middle" class="label">0.5</text>
<rect x="182.26190476190473" y="236.0206364319939" width="10.726190476190476" height="203.9793635680061" fill="#4caf50" rx="2"/>
<text x="187.62499999999997" y="231.0206364319939" text-anchor="middle" class="label">15.2</text>
<rect x="194.88095238095235" y="199.2418630536839" width="10.726190476190476" height="240.7581369463161" fill="#2196f3" rx="2"/>
<text x="200.2440476190476" y="194.2418630536839" text-anchor="middle" class="label">32.3</text>
<rect x="207.49999999999997" y="186.18864976385632" width="10.726190476190476" height="253.81135023614368" fill="#00bcd4" rx="2"/>
<text x="212.8630952380952" y="181.18864976385632" text-anchor="middle" class="label">42.2</text>
<rect x="220.1190476190476" y="168.8016550785223" width="10.726190476190476" height="271.1983449214777" fill="#9c27b0" rx="2"/>
<text x="225.48214285714283" y="163.8016550785223" text-anchor="middle" class="label">60.3</text>
<rect x="232.7380952380952" y="153.5437710071227" width="10.726190476190476" height="286.4562289928773" fill="#f44336" rx="2"/>
<text x="238.10119047619045" y="148.5437710071227" text-anchor="middle" class="label">82.5</text>
<rect x="257.9761904761905" y="408.01441474969226" width="10.726190476190476" height="31.985585250307736" fill="#ff9800" rx="2"/>
<text x="263.3392857142857" y="403.01441474969226" text-anchor="middle" class="label">0.4</text>
<rect x="270.5952380952381" y="221.45031448416722" width="10.726190476190476" height="218.54968551583278" fill="#4caf50" rx="2"/>
<text x="275.9583333333333" y="216.45031448416722" text-anchor="middle" class="label">20.5</text>
<rect x="283.2142857142857" y="183.77177947808622" width="10.726190476190476" height="256.2282205219138" fill="#2196f3" rx="2"/>
<text x="288.57738095238096" y="178.77177947808622" text-anchor="middle" class="label">44.4</text>
<rect x="295.8333333333333" y="204.68114182620536" width="10.726190476190476" height="235.31885817379464" fill="#00bcd4" rx="2"/>
<text x="301.19642857142856" y="199.68114182620536" text-anchor="middle" class="label">28.9</text>
<rect x="308.45238095238096" y="173.36759049606025" width="10.726190476190476" height="266.63240950393975" fill="#9c27b0" rx="2"/>
<text x="313.8154761904762" y="168.36759049606025" text-anchor="middle" class="label">54.9</text>
<rect x="321.07142857142856" y="152.39504281298377" width="10.726190476190476" height="287.6049571870162" fill="#f44336" rx="2"/>
<text x="326.4345238095238" y="147.39504281298377" text-anchor="middle" class="label">84.4</text>
<rect x="346.3095238095238" y="414.66577898176826" width="10.726190476190476" height="25.334221018231744" fill="#ff9800" rx="2"/>
<text x="351.67261904761904" y="409.66577898176826" text-anchor="middle" class="label">0.4</text>
<rect x="358.92857142857144" y="230.09468150591346" width="10.726190476190476" height="209.90531849408654" fill="#4caf50" rx="2"/>
<text x="364.2916666666667" y="225.09468150591346" text-anchor="middle" class="label">17.2</text>
<rect x="371.54761904761904" y="200.505298947486" width="10.726190476190476" height="239.494701052514" fill="#2196f3" rx="2"/>
<text x="376.9107142857143" y="195.505298947486" text-anchor="middle" class="label">31.5</text>
<rect x="384.1666666666667" y="190.1055165895499" width="10.726190476190476" height="249.8944834104501" fill="#00bcd4" rx="2"/>
<text x="389.5297619047619" y="185.1055165895499" text-anchor="middle" class="label">39.0</text>
<rect x="396.7857142857143" y="171.68015925539316" width="10.726190476190476" height="268.31984074460684" fill="#9c27b0" rx="2"/>
<text x="402.1488095238095" y="166.68015925539316" text-anchor="middle" class="label">56.9</text>
<rect x="409.4047619047619" y="149.6001987059882" width="10.726190476190476" height="290.3998012940118" fill="#f44336" rx="2"/>
<text x="414.76785714285717" y="144.6001987059882" text-anchor="middle" class="label">89.4</text>
<rect x="434.6428571428571" y="343.58860762011193" width="10.726190476190476" height="96.41139237988807" fill="#ff9800" rx="2"/>
<text x="440.00595238095235" y="338.58860762011193" text-anchor="middle" class="label">1.7</text>
<rect x="447.26190476190476" y="251.10003971967836" width="10.726190476190476" height="188.89996028032164" fill="#4caf50" rx="2"/>
<text x="452.625" y="246.10003971967836" text-anchor="middle" class="label">11.1</text>
<rect x="459.88095238095235" y="249.36361972627145" width="10.726190476190476" height="190.63638027372855" fill="#2196f3" rx="2"/>
<text x="465.2440476190476" y="244.36361972627145" text-anchor="middle" class="label">11.6</text>
<rect x="472.5" y="53.886825465131324" width="10.726190476190476" height="386.1131745348687" fill="#00bcd4" rx="2"/>
<text x="477.86309523809524" y="68.88682546513132" text-anchor="middle" class="label">637.2</text>
<rect x="485.1190476190476" y="187.15830575081085" width="10.726190476190476" height="252.84169424918915" fill="#9c27b0" rx="2"/>
<text x="490.48214285714283" y="182.15830575081085" text-anchor="middle" class="label">41.4</text>
<rect x="497.7380952380952" y="155.875652269773" width="10.726190476190476" height="284.124347730227" fill="#f44336" rx="2"/>
<text x="503.1011904761904" y="150.875652269773" text-anchor="middle" class="label">78.6</text>
<rect x="522.9761904761905" y="348.38765669773187" width="10.726190476190476" height="91.61234330226813" fill="#ff9800" rx="2"/>
<text x="528.3392857142857" y="343.38765669773187" text-anchor="middle" class="label">1.5</text>
<rect x="535.5952380952381" y="251.14672255767374" width="10.726190476190476" height="188.85327744232626" fill="#4caf50" rx="2"/>
<text x="540.9583333333333" y="246.14672255767374" text-anchor="middle" class="label">11.1</text>
<rect x="548.2142857142857" y="250.1032742105765" width="10.726190476190476" height="189.8967257894235" fill="#2196f3" rx="2"/>
<text x="553.5773809523808" y="245.1032742105765" text-anchor="middle" class="label">11.4</text>
<rect x="560.8333333333333" y="215.264720076915" width="10.726190476190476" height="224.735279923085" fill="#00bcd4" rx="2"/>
<text x="566.1964285714284" y="210.264720076915" text-anchor="middle" class="label">23.2</text>
<rect x="573.452380952381" y="186.4933956932145" width="10.726190476190476" height="253.5066043067855" fill="#9c27b0" rx="2"/>
<text x="578.8154761904761" y="181.4933956932145" text-anchor="middle" class="label">42.0</text>
<rect x="586.0714285714286" y="156.60614527699067" width="10.726190476190476" height="283.3938547230093" fill="#f44336" rx="2"/>
<text x="591.4345238095237" y="151.60614527699067" text-anchor="middle" class="label">77.5</text>
<rect x="611.3095238095239" y="380.62617523306955" width="10.726190476190476" height="59.373824766930454" fill="#ff9800" rx="2"/>
<text x="616.672619047619" y="375.62617523306955" text-anchor="middle" class="label">0.8</text>
<rect x="623.9285714285714" y="251.42212749449482" width="10.726190476190476" height="188.57787250550518" fill="#4caf50" rx="2"/>
<text x="629.2916666666666" y="246.42212749449482" text-anchor="middle" class="label">11.1</text>
<rect x="636.547619047619" y="244.02898116757163" width="10.726190476190476" height="195.97101883242837" fill="#2196f3" rx="2"/>
<text x="641.9107142857142" y="239.02898116757163" text-anchor="middle" class="label">12.9</text>
<rect x="649.1666666666666" y="212.68998424760488" width="10.726190476190476" height="227.31001575239512" fill="#00bcd4" rx="2"/>
<text x="654.5297619047618" y="207.68998424760488" text-anchor="middle" class="label">24.5</text>
<rect x="661.7857142857143" y="183.10220485713728" width="10.726190476190476" height="256.8977951428627" fill="#9c27b0" rx="2"/>
<text x="667.1488095238095" y="178.10220485713728" text-anchor="middle" class="label">45.0</text>
<rect x="674.4047619047619" y="165.32464447446193" width="10.726190476190476" height="274.67535552553807" fill="#f44336" rx="2"/>
<text x="679.7678571428571" y="160.32464447446193" text-anchor="middle" class="label">64.8</text>
<rect x="699.6428571428571" y="332.6289060703747" width="10.726190476190476" height="107.37109392962532" fill="#ff9800" rx="2"/>
<text x="705.0059523809523" y="327.6289060703747" text-anchor="middle" class="label">2.1</text>
<rect x="712.2619047619047" y="233.63803015808946" width="10.726190476190476" height="206.36196984191054" fill="#4caf50" rx="2"/>
<text x="717.6249999999999" y="228.63803015808946" text-anchor="middle" class="label">15.9</text>
<rect x="724.8809523809523" y="240.2473096082144" width="10.726190476190476" height="199.7526903917856" fill="#2196f3" rx="2"/>
<text x="730.2440476190475" y="235.2473096082144" text-anchor="middle" class="label">13.9</text>
<rect x="737.4999999999999" y="222.39088028971594" width="10.726190476190476" height="217.60911971028406" fill="#00bcd4" rx="2"/>
<text x="742.8630952380951" y="217.39088028971594" text-anchor="middle" class="label">20.1</text>
<rect x="750.1190476190476" y="187.44440373533797" width="10.726190476190476" height="252.55559626466203" fill="#9c27b0" rx="2"/>
<text x="755.4821428571428" y="182.44440373533797" text-anchor="middle" class="label">41.1</text>
<rect x="762.7380952380952" y="167.47122603416489" width="10.726190476190476" height="272.5287739658351" fill="#f44336" rx="2"/>
<text x="768.1011904761904" y="162.47122603416489" text-anchor="middle" class="label">62.0</text>
<rect x="787.9761904761905" y="401.94394908268765" width="10.726190476190476" height="38.05605091731235" fill="#ff9800" rx="2"/>
<text x="793.3392857142857" y="396.94394908268765" text-anchor="middle" class="label">0.5</text>
<rect x="800.5952380952381" y="193.55850428439408" width="10.726190476190476" height="246.44149571560592" fill="#4caf50" rx="2"/>
<text x="805.9583333333333" y="188.55850428439408" text-anchor="middle" class="label">36.3</text>
<rect x="813.2142857142857" y="119.00430070211536" width="10.726190476190476" height="320.99569929788464" fill="#2196f3" rx="2"/>
<text x="818.5773809523808" y="114.00430070211536" text-anchor="middle" class="label">167.5</text>
<rect x="825.8333333333333" y="201.1917248579527" width="10.726190476190476" height="238.8082751420473" fill="#00bcd4" rx="2"/>
<text x="831.1964285714284" y="196.1917248579527" text-anchor="middle" class="label">31.0</text>
<rect x="838.452380952381" y="134.3287315804061" width="10.726190476190476" height="305.6712684195939" fill="#9c27b0" rx="2"/>
<text x="843.8154761904761" y="129.3287315804061" text-anchor="middle" class="label">122.3</text>
<rect x="851.0714285714286" y="147.11884554534709" width="10.726190476190476" height="292.8811544546529" fill="#f44336" rx="2"/>
<text x="856.4345238095237" y="142.11884554534709" text-anchor="middle" class="label">94.1</text>
<text x="119.16666666666666" y="460" text-anchor="middle" transform="rotate(-30 119.16666666666666 460)" class="axis">sum</text>
<text x="207.49999999999997" y="460" text-anchor="middle" transform="rotate(-30 207.49999999999997 460)" class="axis">div3or5</text>
<text x="295.8333333333333" y="460" text-anchor="middle" transform="rotate(-30 295.8333333333333 460)" class="axis">count_div3and5</text>
<text x="384.1666666666667" y="460" text-anchor="middle" transform="rotate(-30 384.1666666666667 460)" class="axis">sum_multiples_3or5</text>
<text x="472.5" y="460" text-anchor="middle" transform="rotate(-30 472.5 460)" class="axis">string_concat</text>
<text x="560.8333333333333" y="460" text-anchor="middle" transform="rotate(-30 560.8333333333333 460)" class="axis">list_grow</text>
<text x="649.1666666666666" y="460" text-anchor="middle" transform="rotate(-30 649.1666666666666 460)" class="axis">count_calls</text>
<text x="737.4999999999999" y="460" text-anchor="middle" transform="rotate(-30 737.4999999999999 460)" class="axis">class_new</text>
<text x="825.8333333333333" y="460" text-anchor="middle" transform="rotate(-30 825.8333333333333 460)" class="axis">try_catch</text>
<text x="880" y="65" class="axis" font-weight="bold">Language</text>
<rect x="880" y="87" width="14" height="14" fill="#ff9800" rx="2"/>
<text x="902" y="99" class="axis">Period</text>
<rect x="880" y="109" width="14" height="14" fill="#4caf50" rx="2"/>
<text x="902" y="121" class="axis">C (Release)</text>
<rect x="880" y="131" width="14" height="14" fill="#2196f3" rx="2"/>
<text x="902" y="143" class="axis">Rust</text>
<rect x="880" y="153" width="14" height="14" fill="#00bcd4" rx="2"/>
<text x="902" y="165" class="axis">Go</text>
<rect x="880" y="175" width="14" height="14" fill="#9c27b0" rx="2"/>
<text x="902" y="187" class="axis">C#</text>
<rect x="880" y="197" width="14" height="14" fill="#f44336" rx="2"/>
<text x="902" y="209" class="axis">Java</text>
</svg>