<svg xmlns="http://www.w3.org/2000/svg" width="1200" height="700" viewBox="0 0 1200 700">
<style>
  text { font-family: sans-serif; font-size: 12px; fill: #333; }
  .title { font-size: 18px; font-weight: bold; }
  .axis { font-size: 12px; }
  .label { font-size: 11px; }
  .grid { stroke: #e0e0e0; stroke-width: 1; }
</style>
<rect width="1200" height="700" fill="#ffffff"/>
<text x="600" y="35" text-anchor="middle" class="title">Period Benchmark Results (log scale)</text>
<line x1="90" y1="560.0" x2="980" y2="560.0" class="grid"/>
<text x="82" y="564.0" text-anchor="end" class="axis">0.1 ms</text>
<line x1="90" y1="474.3098381811564" x2="980" y2="474.3098381811564" class="grid"/>
<text x="82" y="478.3098381811564" text-anchor="end" class="axis">1 ms</text>
<line x1="90" y1="330.4190140897123" x2="980" y2="330.4190140897123" class="grid"/>
<text x="82" y="334.4190140897123" text-anchor="end" class="axis">10 ms</text>
<line x1="90" y1="186.5281899982682" x2="980" y2="186.5281899982682" class="grid"/>
<text x="82" y="190.5281899982682" text-anchor="end" class="axis">100 ms</text>
<line x1="90" y1="60" x2="90" y2="560" stroke="#333" stroke-width="2"/>
<line x1="90" y1="560" x2="980" y2="560" stroke="#333" stroke-width="2"/>
<rect x="97.06349206349206" y="546.0555383655582" width="12.007936507936508" height="13.944461634441836" fill="#ff9800" rx="2"/>
<text x="103.06746031746032" y="541.0555383655582" text-anchor="middle" class="label">0.3</text>
<rect x="111.19047619047619" y="328.9124780616246" width="12.007936507936508" height="231.0875219383754" fill="#4caf50" rx="2"/>
<text x="117.19444444444444" y="323.9124780616246" text-anchor="middle" class="label">10.2</text>
<rect x="125.31746031746032" y="284.64219440030223" width="12.007936507936508" height="275.35780559969777" fill="#2196f3" rx="2"/>
<text x="131.32142857142858" y="279.64219440030223" text-anchor="middle" class="label">20.8</text>
<rect x="139.44444444444446" y="270.07469158513436" width="12.007936507936508" height="289.92530841486564" fill="#00bcd4" rx="2"/>
<text x="145.4484126984127" y="265.07469158513436" text-anchor="middle" class="label">26.3</text>
<rect x="153.57142857142856" y="240.23919907685433" width="12.007936507936508" height="319.76080092314567" fill="#9c27b0" rx="2"/>
<text x="159.5753968253968" y="235.23919907685433" text-anchor="middle" class="label">42.3</text>
<rect x="167.6984126984127" y="216.44959035361188" width="12.007936507936508" height="343.5504096463881" fill="#f44336" rx="2"/>
<text x="173.70238095238096" y="211.44959035361188" text-anchor="middle" class="label">62.0</text>
<rect x="195.95238095238096" y="534.381684021406" width="12.007936507936508" height="25.618315978593955" fill="#ff9800" rx="2"/>
<text x="201.95634920634922" y="529.381684021406" text-anchor="middle" class="label">0.4</text>
<rect x="210.07936507936506" y="302.69781154608484" width="12.007936507936508" height="257.30218845391516" fill="#4caf50" rx="2"/>
<text x="216.08333333333331" y="297.69781154608484" text-anchor="middle" class="label">15.6</text>
<rect x="224.20634920634922" y="256.09652018869934" width="12.007936507936508" height="303.90347981130066" fill="#2196f3" rx="2"/>
<text x="230.21031746031747" y="251.09652018869934" text-anchor="middle" class="label">32.8</text>
<rect x="238.33333333333331" y="246.8526339985617" width="12.007936507936508" height="313.1473660014383" fill="#00bcd4" rx="2"/>
<text x="244.33730158730157" y="241.8526339985617" text-anchor="middle" class="label">38.1</text>
<rect x="252.46031746031747" y="221.43493829236849" width="12.007936507936508" height="338.5650617076315" fill="#9c27b0" rx="2"/>
<text x="258.4642857142857" y="216.43493829236849" text-anchor="middle" class="label">57.2</text>
<rect x="266.58730158730157" y="202.58627491114106" width="12.007936507936508" height="357.41372508885894" fill="#f44336" rx="2"/>
<text x="272.5912698412698" y="197.58627491114106" text-anchor="middle" class="label">77.3</text>
<rect x="294.8412698412698" y="531.5026122222091" width="12.007936507936508" height="28.49738777779089" fill="#ff9800" rx="2"/>
<text x="300.8452380952381" y="526.5026122222091" text-anchor="middle" class="label">0.4</text>
<rect x="308.968253968254" y="285.0329861239602" width="12.007936507936508" height="274.9670138760398" fill="#4caf50" rx="2"/>
<text x="314.97222222222223" y="280.0329861239602" text-anchor="middle" class="label">20.7</text>
<rect x="323.0952380952381" y="237.27831244781555" width="12.007936507936508" height="322.72168755218445" fill="#2196f3" rx="2"/>
<text x="329.0992063492063" y="232.27831244781555" text-anchor="middle" class="label">44.4</text>
<rect x="337.22222222222223" y="256.1671003002645" width="12.007936507936508" height="303.8328996997355" fill="#00bcd4" rx="2"/>
<text x="343.2261904761905" y="251.1671003002645" text-anchor="middle" class="label">32.8</text>
<rect x="351.3492063492063" y="222.7960799649353" width="12.007936507936508" height="337.2039200350647" fill="#9c27b0" rx="2"/>
<text x="357.3531746031746" y="217.7960799649353" text-anchor="middle" class="label">56.0</text>
<rect x="365.4761904761905" y="202.17482035779966" width="12.007936507936508" height="357.82517964220034" fill="#f44336" rx="2"/>
<text x="371.48015873015873" y="197.17482035779966" text-anchor="middle" class="label">77.9</text>
<rect x="393.7301587301587" y="529.3475633543463" width="12.007936507936508" height="30.652436645653665" fill="#ff9800" rx="2"/>
<text x="399.73412698412693" y="524.3475633543463" text-anchor="middle" class="label">0.4</text>
<rect x="407.85714285714283" y="302.2309710747335" width="12.007936507936508" height="257.7690289252665" fill="#4caf50" rx="2"/>
<text x="413.8611111111111" y="297.2309710747335" text-anchor="middle" class="label">15.7</text>
<rect x="421.98412698412693" y="261.1907130299707" width="12.007936507936508" height="298.8092869700293" fill="#2196f3" rx="2"/>
<text x="427.9880952380952" y="256.1907130299707" text-anchor="middle" class="label">30.3</text>
<rect x="436.1111111111111" y="238.2876322858961" width="12.007936507936508" height="321.7123677141039" fill="#00bcd4" rx="2"/>
<text x="442.11507936507934" y="233.2876322858961" text-anchor="middle" class="label">43.7</text>
<rect x="450.2380952380952" y="216.676353855674" width="12.007936507936508" height="343.323646144326" fill="#9c27b0" rx="2"/>
<text x="456.24206349206344" y="211.676353855674" text-anchor="middle" class="label">61.7</text>
<rect x="464.36507936507934" y="194.09474586852485" width="12.007936507936508" height="365.90525413147515" fill="#f44336" rx="2"/>
<text x="470.3690476190476" y="189.09474586852485" text-anchor="middle" class="label">88.6</text>
<rect x="492.6190476190476" y="439.4589911277139" width="12.007936507936508" height="120.54100887228611" fill="#ff9800" rx="2"/>
<text x="498.62301587301585" y="434.4589911277139" text-anchor="middle" class="label">1.7</text>
<rect x="506.74603174603175" y="315.9032545995075" width="12.007936507936508" height="244.09674540049252" fill="#4caf50" rx="2"/>
<text x="512.75" y="310.9032545995075" text-anchor="middle" class="label">12.6</text>
<rect x="520.8730158730159" y="314.41071361922377" width="12.007936507936508" height="245.58928638077623" fill="#2196f3" rx="2"/>
<text x="526.8769841269842" y="309.41071361922377" text-anchor="middle" class="label">12.9</text>
<rect x="535.0" y="71.39345474638009" width="12.007936507936508" height="488.6065452536199" fill="#00bcd4" rx="2"/>
<text x="541.0039682539683" y="86.39345474638009" text-anchor="middle" class="label">631.2</text>
<rect x="549.1269841269841" y="239.850826541306" width="12.007936507936508" height="320.149173458694" fill="#9c27b0" rx="2"/>
<text x="555.1309523809524" y="234.850826541306" text-anchor="middle" class="label">42.6</text>
<rect x="563.2539682539682" y="206.72550048754226" width="12.007936507936508" height="353.27449951245774" fill="#f44336" rx="2"/>
<text x="569.2579365079365" y="201.72550048754226" text-anchor="middle" class="label">72.4</text>
<rect x="591.5079365079365" y="442.9950673768682" width="12.007936507936508" height="117.00493262313182" fill="#ff9800" rx="2"/>
<text x="597.5119047619048" y="437.9950673768682" text-anchor="middle" class="label">1.7</text>
<rect x="605.6349206349206" y="324.0128021077916" width="12.007936507936508" height="235.98719789220843" fill="#4caf50" rx="2"/>
<text x="611.6388888888889" y="319.0128021077916" text-anchor="middle" class="label">11.1</text>
<rect x="619.7619047619048" y="320.6510256783905" width="12.007936507936508" height="239.3489743216095" fill="#2196f3" rx="2"/>
<text x="625.7658730158731" y="315.6510256783905" text-anchor="middle" class="label">11.7</text>
<rect x="633.8888888888889" y="282.0540886717976" width="12.007936507936508" height="277.9459113282024" fill="#00bcd4" rx="2"/>
<text x="639.8928571428572" y="277.0540886717976" text-anchor="middle" class="label">21.7</text>
<rect x="648.015873015873" y="237.87852342830638" width="12.007936507936508" height="322.1214765716936" fill="#9c27b0" rx="2"/>
<text x="654.0198412698413" y="232.87852342830638" text-anchor="middle" class="label">44.0</text>
<rect x="662.1428571428571" y="194.19464638195666" width="12.007936507936508" height="365.80535361804334" fill="#f44336" rx="2"/>
<text x="668.1468253968254" y="189.19464638195666" text-anchor="middle" class="label">88.5</text>
<rect x="690.3968253968253" y="522.2840674744514" width="12.007936507936508" height="37.715932525548624" fill="#ff9800" rx="2"/>
<text x="696.4007936507936" y="517.2840674744514" text-anchor="middle" class="label">0.5</text>
<rect x="704.5238095238094" y="319.9879506574217" width="12.007936507936508" height="240.01204934257828" fill="#4caf50" rx="2"/>
<text x="710.5277777777777" y="314.9879506574217" text-anchor="middle" class="label">11.8</text>
<rect x="718.6507936507936" y="321.24184641423824" width="12.007936507936508" height="238.75815358576176" fill="#2196f3" rx="2"/>
<text x="724.6547619047619" y="316.24184641423824" text-anchor="middle" class="label">11.6</text>
<rect x="732.7777777777777" y="272.6243205001436" width="12.007936507936508" height="287.3756794998564" fill="#00bcd4" rx="2"/>
<text x="738.781746031746" y="267.6243205001436" text-anchor="middle" class="label">25.2</text>
<rect x="746.9047619047618" y="241.3406046596744" width="12.007936507936508" height="318.6593953403256" fill="#9c27b0" rx="2"/>
<text x="752.9087301587301" y="236.3406046596744" text-anchor="middle" class="label">41.6</text>
<rect x="761.0317460317459" y="212.90524356313568" width="12.007936507936508" height="347.0947564368643" fill="#f44336" rx="2"/>
<text x="767.0357142857142" y="207.90524356313568" text-anchor="middle" class="label">65.6</text>
<rect x="789.2857142857142" y="434.91690730721973" width="12.007936507936508" height="125.08309269278027" fill="#ff9800" rx="2"/>
<text x="795.2896825396825" y="429.91690730721973" text-anchor="middle" class="label">1.9</text>
<rect x="803.4126984126983" y="322.476220117914" width="12.007936507936508" height="237.523779882086" fill="#4caf50" rx="2"/>
<text x="809.4166666666666" y="317.476220117914" text-anchor="middle" class="label">11.4</text>
<rect x="817.5396825396825" y="320.582435907901" width="12.007936507936508" height="239.41756409209898" fill="#2196f3" rx="2"/>
<text x="823.5436507936508" y="315.582435907901" text-anchor="middle" class="label">11.7</text>
<rect x="831.6666666666666" y="275.9075236998857" width="12.007936507936508" height="284.0924763001143" fill="#00bcd4" rx="2"/>
<text x="837.6706349206349" y="270.9075236998857" text-anchor="middle" class="label">23.9</text>
<rect x="845.7936507936507" y="236.60368544920271" width="12.007936507936508" height="323.3963145507973" fill="#9c27b0" rx="2"/>
<text x="851.797619047619" y="231.60368544920271" text-anchor="middle" class="label">44.9</text>
<rect x="859.9206349206348" y="213.67038252925266" width="12.007936507936508" height="346.32961747074734" fill="#f44336" rx="2"/>
<text x="865.9246031746031" y="208.67038252925266" text-anchor="middle" class="label">64.8</text>
<rect x="888.1746031746031" y="516.0078912722405" width="12.007936507936508" height="43.9921087277595" fill="#ff9800" rx="2"/>
<text x="894.1785714285714" y="511.0078912722405" text-anchor="middle" class="label">0.5</text>
<rect x="902.3015873015872" y="243.92063337831257" width="12.007936507936508" height="316.0793666216874" fill="#4caf50" rx="2"/>
<text x="908.3055555555555" y="238.92063337831257" text-anchor="middle" class="label">39.9</text>
<rect x="916.4285714285714" y="154.03093726329462" width="12.007936507936508" height="405.9690627367054" fill="#2196f3" rx="2"/>
<text x="922.4325396825398" y="149.03093726329462" text-anchor="middle" class="label">168.2</text>
<rect x="930.5555555555555" y="261.82872879805706" width="12.007936507936508" height="298.17127120194294" fill="#00bcd4" rx="2"/>
<text x="936.5595238095239" y="256.82872879805706" text-anchor="middle" class="label">30.0</text>
<rect x="944.6825396825396" y="176.34703726094125" width="12.007936507936508" height="383.65296273905875" fill="#9c27b0" rx="2"/>
<text x="950.686507936508" y="171.34703726094125" text-anchor="middle" class="label">117.7</text>
<rect x="958.8095238095237" y="191.49171900954974" width="12.007936507936508" height="368.50828099045026" fill="#f44336" rx="2"/>
<text x="964.813492063492" y="186.49171900954974" text-anchor="middle" class="label">92.4</text>
<text x="139.44444444444446" y="580" text-anchor="middle" transform="rotate(-30 139.44444444444446 580)" class="axis">sum</text>
<text x="238.33333333333331" y="580" text-anchor="middle" transform="rotate(-30 238.33333333333331 580)" class="axis">div3or5</text>
<text x="337.22222222222223" y="580" text-anchor="middle" transform="rotate(-30 337.22222222222223 580)" class="axis">count_div3and5</text>
<text x="436.1111111111111" y="580" text-anchor="middle" transform="rotate(-30 436.1111111111111 580)" class="axis">sum_multiples_3or5</text>
<text x="535.0" y="580" text-anchor="middle" transform="rotate(-30 535.0 580)" class="axis">string_concat</text>
<text x="633.8888888888889" y="580" text-anchor="middle" transform="rotate(-30 633.8888888888889 580)" class="axis">list_grow</text>
<text x="732.7777777777777" y="580" text-anchor="middle" transform="rotate(-30 732.7777777777777 580)" class="axis">count_calls</text>
<text x="831.6666666666666" y="580" text-anchor="middle" transform="rotate(-30 831.6666666666666 580)" class="axis">class_new</text>
<text x="930.5555555555555" y="580" text-anchor="middle" transform="rotate(-30 930.5555555555555 580)" class="axis">try_catch</text>
<text x="1010" y="70" class="axis" font-weight="bold">Language</text>
<rect x="1010" y="70" width="14" height="14" fill="#ff9800" rx="2"/>
<text x="1032" y="82" class="axis">Period</text>
<rect x="1010" y="92" width="14" height="14" fill="#4caf50" rx="2"/>
<text x="1032" y="104" class="axis">C (Release)</text>
<rect x="1010" y="114" width="14" height="14" fill="#2196f3" rx="2"/>
<text x="1032" y="126" class="axis">Rust</text>
<rect x="1010" y="136" width="14" height="14" fill="#00bcd4" rx="2"/>
<text x="1032" y="148" class="axis">Go</text>
<rect x="1010" y="158" width="14" height="14" fill="#9c27b0" rx="2"/>
<text x="1032" y="170" class="axis">C#</text>
<rect x="1010" y="180" width="14" height="14" fill="#f44336" rx="2"/>
<text x="1032" y="192" class="axis">Java</text>
</svg>