<svg xmlns="http://www.w3.org/2000/svg" width="1200" height="700" viewBox="0 0 1200 700">
<style>
  text { font-family: sans-serif; font-size: 12px; fill: #333; }
  .title { font-size: 18px; font-weight: bold; }
  .axis { font-size: 12px; }
  .label { font-size: 11px; }
  .grid { stroke: #e0e0e0; stroke-width: 1; }
</style>
<rect width="1200" height="700" fill="#ffffff"/>
<text x="600" y="35" text-anchor="middle" class="title">Period Benchmark Results (log scale)</text>
<line x1="90" y1="560.0" x2="980" y2="560.0" class="grid"/>
<text x="82" y="564.0" text-anchor="end" class="axis">10 ms</text>
<line x1="90" y1="305.2093399710848" x2="980" y2="305.2093399710848" class="grid"/>
<text x="82" y="309.2093399710848" text-anchor="end" class="axis">100 ms</text>
<line x1="90" y1="60" x2="90" y2="560" stroke="#333" stroke-width="2"/>
<line x1="90" y1="560" x2="980" y2="560" stroke="#333" stroke-width="2"/>
<rect x="97.06349206349206" y="534.3357407449917" width="12.007936507936508" height="25.664259255008346" fill="#4caf50" rx="2"/>
<text x="103.06746031746032" y="529.3357407449917" text-anchor="middle" class="label">13.6</text>
<rect x="111.19047619047619" y="522.2210603863055" width="12.007936507936508" height="37.77893961369455" fill="#ff9800" rx="2"/>
<text x="117.19444444444444" y="517.2210603863055" text-anchor="middle" class="label">15.2</text>
<rect x="125.31746031746032" y="463.36684672889606" width="12.007936507936508" height="96.63315327110394" fill="#2196f3" rx="2"/>
<text x="131.32142857142858" y="458.36684672889606" text-anchor="middle" class="label">25.3</text>
<rect x="139.44444444444446" y="439.78763882458156" width="12.007936507936508" height="120.21236117541844" fill="#00bcd4" rx="2"/>
<text x="145.4484126984127" y="434.78763882458156" text-anchor="middle" class="label">31.0</text>
<rect x="153.57142857142856" y="337.0641282549625" width="12.007936507936508" height="222.9358717450375" fill="#f44336" rx="2"/>
<text x="159.5753968253968" y="332.0641282549625" text-anchor="middle" class="label">75.8</text>
<rect x="167.6984126984127" y="379.83112229352747" width="12.007936507936508" height="180.16887770647253" fill="#9c27b0" rx="2"/>
<text x="173.70238095238096" y="374.83112229352747" text-anchor="middle" class="label">52.3</text>
<rect x="195.95238095238096" y="501.9938523594716" width="12.007936507936508" height="58.00614764052841" fill="#4caf50" rx="2"/>
<text x="201.95634920634922" y="496.9938523594716" text-anchor="middle" class="label">18.1</text>
<rect x="210.07936507936506" y="364.3370598091981" width="12.007936507936508" height="195.66294019080192" fill="#ff9800" rx="2"/>
<text x="216.08333333333331" y="359.3370598091981" text-anchor="middle" class="label">59.8</text>
<rect x="224.20634920634922" y="420.44189317967846" width="12.007936507936508" height="139.55810682032154" fill="#2196f3" rx="2"/>
<text x="230.21031746031747" y="415.44189317967846" text-anchor="middle" class="label">36.7</text>
<rect x="238.33333333333331" y="413.7543297248037" width="12.007936507936508" height="146.2456702751963" fill="#00bcd4" rx="2"/>
<text x="244.33730158730157" y="408.7543297248037" text-anchor="middle" class="label">38.9</text>
<rect x="252.46031746031747" y="319.4382124485745" width="12.007936507936508" height="240.56178755142548" fill="#f44336" rx="2"/>
<text x="258.4642857142857" y="314.4382124485745" text-anchor="middle" class="label">88.4</text>
<rect x="266.58730158730157" y="353.75503827023795" width="12.007936507936508" height="206.24496172976205" fill="#9c27b0" rx="2"/>
<text x="272.5912698412698" y="348.75503827023795" text-anchor="middle" class="label">65.6</text>
<rect x="294.8412698412698" y="470.04305910390514" width="12.007936507936508" height="89.95694089609486" fill="#4caf50" rx="2"/>
<text x="300.8452380952381" y="465.04305910390514" text-anchor="middle" class="label">23.9</text>
<rect x="308.968253968254" y="381.0749672845744" width="12.007936507936508" height="178.92503271542557" fill="#ff9800" rx="2"/>
<text x="314.97222222222223" y="376.0749672845744" text-anchor="middle" class="label">51.7</text>
<rect x="323.0952380952381" y="396.58189504031725" width="12.007936507936508" height="163.41810495968275" fill="#2196f3" rx="2"/>
<text x="329.0992063492063" y="391.58189504031725" text-anchor="middle" class="label">45.2</text>
<rect x="337.22222222222223" y="434.9013848549576" width="12.007936507936508" height="125.0986151450424" fill="#00bcd4" rx="2"/>
<text x="343.2261904761905" y="429.9013848549576" text-anchor="middle" class="label">32.4</text>
<rect x="351.3492063492063" y="325.2903514322883" width="12.007936507936508" height="234.70964856771172" fill="#f44336" rx="2"/>
<text x="357.3531746031746" y="320.2903514322883" text-anchor="middle" class="label">84.0</text>
<rect x="365.4761904761905" y="352.6371753096864" width="12.007936507936508" height="207.36282469031357" fill="#9c27b0" rx="2"/>
<text x="371.48015873015873" y="347.6371753096864" text-anchor="middle" class="label">66.2</text>
<rect x="393.7301587301587" y="492.41211271475663" width="12.007936507936508" height="67.58788728524337" fill="#4caf50" rx="2"/>
<text x="399.73412698412693" y="487.41211271475663" text-anchor="middle" class="label">19.6</text>
<rect x="407.85714285714283" y="342.97393114093086" width="12.007936507936508" height="217.02606885906914" fill="#ff9800" rx="2"/>
<text x="413.8611111111111" y="337.97393114093086" text-anchor="middle" class="label">72.0</text>
<rect x="421.98412698412693" y="436.6435460424558" width="12.007936507936508" height="123.3564539575442" fill="#2196f3" rx="2"/>
<text x="427.9880952380952" y="431.6435460424558" text-anchor="middle" class="label">31.9</text>
<rect x="436.1111111111111" y="403.69287496499663" width="12.007936507936508" height="156.30712503500337" fill="#00bcd4" rx="2"/>
<text x="442.11507936507934" y="398.69287496499663" text-anchor="middle" class="label">42.5</text>
<rect x="450.2380952380952" y="316.66903084358773" width="12.007936507936508" height="243.33096915641227" fill="#f44336" rx="2"/>
<text x="456.24206349206344" y="311.66903084358773" text-anchor="middle" class="label">90.5</text>
<rect x="464.36507936507934" y="351.4950144732375" width="12.007936507936508" height="208.50498552676248" fill="#9c27b0" rx="2"/>
<text x="470.3690476190476" y="346.4950144732375" text-anchor="middle" class="label">66.9</text>
<rect x="492.6190476190476" y="530.6683080103264" width="12.007936507936508" height="29.331691989673573" fill="#4caf50" rx="2"/>
<text x="498.62301587301585" y="525.6683080103264" text-anchor="middle" class="label">14.1</text>
<rect x="506.74603174603175" y="421.2477507006386" width="12.007936507936508" height="138.75224929936138" fill="#ff9800" rx="2"/>
<text x="512.75" y="416.2477507006386" text-anchor="middle" class="label">36.5</text>
<rect x="520.8730158730159" y="529.5728791930202" width="12.007936507936508" height="30.427120806979815" fill="#2196f3" rx="2"/>
<text x="526.8769841269842" y="524.5728791930202" text-anchor="middle" class="label">14.2</text>
<rect x="535.0" y="80.96922664257528" width="12.007936507936508" height="479.0307733574247" fill="#00bcd4" rx="2"/>
<text x="541.0039682539683" y="75.96922664257528" text-anchor="middle" class="label">702.7</text>
<rect x="549.1269841269841" y="324.26948703226697" width="12.007936507936508" height="235.73051296773303" fill="#f44336" rx="2"/>
<text x="555.1309523809524" y="319.26948703226697" text-anchor="middle" class="label">84.7</text>
<rect x="563.2539682539682" y="383.9365867653166" width="12.007936507936508" height="176.06341323468342" fill="#9c27b0" rx="2"/>
<text x="569.2579365079365" y="378.9365867653166" text-anchor="middle" class="label">50.4</text>
<rect x="591.5079365079365" y="523.6656667905255" width="12.007936507936508" height="36.334333209474494" fill="#4caf50" rx="2"/>
<text x="597.5119047619048" y="518.6656667905255" text-anchor="middle" class="label">15.0</text>
<rect x="605.6349206349206" y="497.28436641298856" width="12.007936507936508" height="62.71563358701144" fill="#ff9800" rx="2"/>
<text x="611.6388888888889" y="492.28436641298856" text-anchor="middle" class="label">18.8</text>
<rect x="619.7619047619048" y="519.5916390901745" width="12.007936507936508" height="40.40836090982555" fill="#2196f3" rx="2"/>
<text x="625.7658730158731" y="514.5916390901745" text-anchor="middle" class="label">15.5</text>
<rect x="633.8888888888889" y="456.7017443655712" width="12.007936507936508" height="103.29825563442881" fill="#00bcd4" rx="2"/>
<text x="639.8928571428572" y="451.7017443655712" text-anchor="middle" class="label">26.8</text>
<rect x="648.015873015873" y="332.1598312030045" width="12.007936507936508" height="227.8401687969955" fill="#f44336" rx="2"/>
<text x="654.0198412698413" y="327.1598312030045" text-anchor="middle" class="label">79.1</text>
<rect x="662.1428571428571" y="380.5232334011387" width="12.007936507936508" height="179.47676659886127" fill="#9c27b0" rx="2"/>
<text x="668.1468253968254" y="375.5232334011387" text-anchor="middle" class="label">52.0</text>
<rect x="690.3968253968253" y="529.4764041686509" width="12.007936507936508" height="30.5235958313491" fill="#4caf50" rx="2"/>
<text x="696.4007936507936" y="524.4764041686509" text-anchor="middle" class="label">14.2</text>
<rect x="704.5238095238094" y="507.40314564542075" width="12.007936507936508" height="52.59685435457925" fill="#ff9800" rx="2"/>
<text x="710.5277777777777" y="502.40314564542075" text-anchor="middle" class="label">17.2</text>
<rect x="718.6507936507936" y="522.4651600223057" width="12.007936507936508" height="37.53483997769433" fill="#2196f3" rx="2"/>
<text x="724.6547619047619" y="517.4651600223057" text-anchor="middle" class="label">15.1</text>
<rect x="732.7777777777777" y="464.46255052533263" width="12.007936507936508" height="95.53744947466737" fill="#00bcd4" rx="2"/>
<text x="738.781746031746" y="459.46255052533263" text-anchor="middle" class="label">25.0</text>
<rect x="746.9047619047618" y="335.09573362716236" width="12.007936507936508" height="224.90426637283764" fill="#f44336" rx="2"/>
<text x="752.9087301587301" y="330.09573362716236" text-anchor="middle" class="label">77.1</text>
<rect x="761.0317460317459" y="380.4738766559227" width="12.007936507936508" height="179.5261233440773" fill="#9c27b0" rx="2"/>
<text x="767.0357142857142" y="375.4738766559227" text-anchor="middle" class="label">52.0</text>
<rect x="789.2857142857142" y="520.9389807281916" width="12.007936507936508" height="39.06101927180839" fill="#4caf50" rx="2"/>
<text x="795.2896825396825" y="515.9389807281916" text-anchor="middle" class="label">15.3</text>
<rect x="803.4126984126983" y="200.47587909209022" width="12.007936507936508" height="359.5241209079098" fill="#ff9800" rx="2"/>
<text x="809.4166666666666" y="195.47587909209022" text-anchor="middle" class="label">248.6</text>
<rect x="817.5396825396825" y="524.275017293621" width="12.007936507936508" height="35.72498270637902" fill="#2196f3" rx="2"/>
<text x="823.5436507936508" y="519.275017293621" text-anchor="middle" class="label">14.9</text>
<rect x="831.6666666666666" y="455.2752519737354" width="12.007936507936508" height="104.72474802626459" fill="#00bcd4" rx="2"/>
<text x="837.6706349206349" y="450.2752519737354" text-anchor="middle" class="label">27.1</text>
<rect x="845.7936507936507" y="340.2036530598825" width="12.007936507936508" height="219.79634694011747" fill="#f44336" rx="2"/>
<text x="851.797619047619" y="335.2036530598825" text-anchor="middle" class="label">73.8</text>
<rect x="859.9206349206348" y="386.0226579626791" width="12.007936507936508" height="173.9773420373209" fill="#9c27b0" rx="2"/>
<text x="865.9246031746031" y="381.0226579626791" text-anchor="middle" class="label">49.5</text>
<rect x="888.1746031746031" y="256.4106989346719" width="12.007936507936508" height="303.5893010653281" fill="#ff9800" rx="2"/>
<text x="894.1785714285714" y="251.41069893467193" text-anchor="middle" class="label">152.9</text>
<rect x="902.3015873015872" y="299.49970195318775" width="12.007936507936508" height="260.50029804681225" fill="#f44336" rx="2"/>
<text x="908.3055555555555" y="294.49970195318775" text-anchor="middle" class="label">105.1</text>
<rect x="916.4285714285714" y="274.0756999864917" width="12.007936507936508" height="285.9243000135083" fill="#9c27b0" rx="2"/>
<text x="922.4325396825398" y="269.0756999864917" text-anchor="middle" class="label">131.1</text>
<text x="139.44444444444446" y="580" text-anchor="middle" transform="rotate(-30 139.44444444444446 580)" class="axis">sum</text>
<text x="238.33333333333331" y="580" text-anchor="middle" transform="rotate(-30 238.33333333333331 580)" class="axis">div3or5</text>
<text x="337.22222222222223" y="580" text-anchor="middle" transform="rotate(-30 337.22222222222223 580)" class="axis">count_div3and5</text>
<text x="436.1111111111111" y="580" text-anchor="middle" transform="rotate(-30 436.1111111111111 580)" class="axis">sum_multiples_3or5</text>
<text x="535.0" y="580" text-anchor="middle" transform="rotate(-30 535.0 580)" class="axis">string_concat</text>
<text x="633.8888888888889" y="580" text-anchor="middle" transform="rotate(-30 633.8888888888889 580)" class="axis">list_grow</text>
<text x="732.7777777777777" y="580" text-anchor="middle" transform="rotate(-30 732.7777777777777 580)" class="axis">count_calls</text>
<text x="831.6666666666666" y="580" text-anchor="middle" transform="rotate(-30 831.6666666666666 580)" class="axis">class_new</text>
<text x="930.5555555555555" y="580" text-anchor="middle" transform="rotate(-30 930.5555555555555 580)" class="axis">try_catch</text>
<text x="1010" y="70" class="axis" font-weight="bold">Language</text>
<rect x="1010" y="70" width="14" height="14" fill="#4caf50" rx="2"/>
<text x="1032" y="82" class="axis">C (Release)</text>
<rect x="1010" y="92" width="14" height="14" fill="#ff9800" rx="2"/>
<text x="1032" y="104" class="axis">Period</text>
<rect x="1010" y="114" width="14" height="14" fill="#2196f3" rx="2"/>
<text x="1032" y="126" class="axis">Rust</text>
<rect x="1010" y="136" width="14" height="14" fill="#00bcd4" rx="2"/>
<text x="1032" y="148" class="axis">Go</text>
<rect x="1010" y="158" width="14" height="14" fill="#f44336" rx="2"/>
<text x="1032" y="170" class="axis">Java</text>
<rect x="1010" y="180" width="14" height="14" fill="#9c27b0" rx="2"/>
<text x="1032" y="192" class="axis">C#</text>
</svg>