<svg xmlns="http://www.w3.org/2000/svg" width="1200" height="700" viewBox="0 0 1200 700">
<style>
  text { font-family: sans-serif; font-size: 12px; fill: #333; }
  .title { font-size: 18px; font-weight: bold; }
  .axis { font-size: 12px; }
  .label { font-size: 11px; }
  .grid { stroke: #e0e0e0; stroke-width: 1; }
</style>
<rect width="1200" height="700" fill="#ffffff"/>
<text x="600" y="35" text-anchor="middle" class="title">Period Benchmark Results (log scale)</text>
<line x1="90" y1="560.0" x2="980" y2="560.0" class="grid"/>
<text x="82" y="564.0" text-anchor="end" class="axis">1 ms</text>
<line x1="90" y1="557.0816988308833" x2="980" y2="557.0816988308833" class="grid"/>
<text x="82" y="561.0816988308833" text-anchor="end" class="axis">10 ms</text>
<line x1="90" y1="291.3602087645887" x2="980" y2="291.3602087645887" class="grid"/>
<text x="82" y="295.3602087645887" text-anchor="end" class="axis">100 ms</text>
<line x1="90" y1="60" x2="90" y2="560" stroke="#333" stroke-width="2"/>
<line x1="90" y1="560" x2="980" y2="560" stroke="#333" stroke-width="2"/>
<rect x="97.06349206349206" y="534.2489269411552" width="12.007936507936508" height="25.75107305884478" fill="#4caf50" rx="2"/>
<text x="103.06746031746032" y="529.2489269411552" text-anchor="middle" class="label">12.2</text>
<rect x="111.19047619047619" y="525.0539800203018" width="12.007936507936508" height="34.946019979698235" fill="#ff9800" rx="2"/>
<text x="117.19444444444444" y="520.0539800203018" text-anchor="middle" class="label">13.2</text>
<rect x="125.31746031746032" y="462.9124391786117" width="12.007936507936508" height="97.08756082138831" fill="#2196f3" rx="2"/>
<text x="131.32142857142858" y="457.9124391786117" text-anchor="middle" class="label">22.6</text>
<rect x="139.44444444444446" y="445.7282804971701" width="12.007936507936508" height="114.27171950282991" fill="#00bcd4" rx="2"/>
<text x="145.4484126984127" y="440.7282804971701" text-anchor="middle" class="label">26.2</text>
<rect x="153.57142857142856" y="332.70779298174074" width="12.007936507936508" height="227.29220701825926" fill="#f44336" rx="2"/>
<text x="159.5753968253968" y="327.70779298174074" text-anchor="middle" class="label">69.9</text>
<rect x="167.6984126984127" y="378.7597581700011" width="12.007936507936508" height="181.24024182999892" fill="#9c27b0" rx="2"/>
<text x="173.70238095238096" y="373.7597581700011" text-anchor="middle" class="label">46.9</text>
<rect x="195.95238095238096" y="491.0990220319862" width="12.007936507936508" height="68.90097796801382" fill="#4caf50" rx="2"/>
<text x="201.95634920634922" y="486.0990220319862" text-anchor="middle" class="label">17.7</text>
<rect x="210.07936507936506" y="521.0277134745211" width="12.007936507936508" height="38.97228652547892" fill="#ff9800" rx="2"/>
<text x="216.08333333333331" y="516.0277134745211" text-anchor="middle" class="label">13.7</text>
<rect x="224.20634920634922" y="413.831191002917" width="12.007936507936508" height="146.16880899708298" fill="#2196f3" rx="2"/>
<text x="230.21031746031747" y="408.831191002917" text-anchor="middle" class="label">34.6</text>
<rect x="238.33333333333331" y="402.18127710927246" width="12.007936507936508" height="157.81872289072754" fill="#00bcd4" rx="2"/>
<text x="244.33730158730157" y="397.18127710927246" text-anchor="middle" class="label">38.3</text>
<rect x="252.46031746031747" y="317.27639500292753" width="12.007936507936508" height="242.72360499707247" fill="#f44336" rx="2"/>
<text x="258.4642857142857" y="312.27639500292753" text-anchor="middle" class="label">79.9</text>
<rect x="266.58730158730157" y="344.000305015834" width="12.007936507936508" height="215.999694984166" fill="#9c27b0" rx="2"/>
<text x="272.5912698412698" y="339.000305015834" text-anchor="middle" class="label">63.4</text>
<rect x="294.8412698412698" y="461.8800015640222" width="12.007936507936508" height="98.11999843597778" fill="#4caf50" rx="2"/>
<text x="300.8452380952381" y="456.8800015640222" text-anchor="middle" class="label">22.8</text>
<rect x="308.968253968254" y="521.1752329689423" width="12.007936507936508" height="38.82476703105772" fill="#ff9800" rx="2"/>
<text x="314.97222222222223" y="516.1752329689423" text-anchor="middle" class="label">13.6</text>
<rect x="323.0952380952381" y="376.41543818005323" width="12.007936507936508" height="183.58456181994677" fill="#2196f3" rx="2"/>
<text x="329.0992063492063" y="371.41543818005323" text-anchor="middle" class="label">47.9</text>
<rect x="337.22222222222223" y="428.3248894987146" width="12.007936507936508" height="131.67511050128542" fill="#00bcd4" rx="2"/>
<text x="343.2261904761905" y="423.3248894987146" text-anchor="middle" class="label">30.5</text>
<rect x="351.3492063492063" y="321.38710675080324" width="12.007936507936508" height="238.61289324919676" fill="#f44336" rx="2"/>
<text x="357.3531746031746" y="316.38710675080324" text-anchor="middle" class="label">77.1</text>
<rect x="365.4761904761905" y="344.64091001222005" width="12.007936507936508" height="215.35908998777995" fill="#9c27b0" rx="2"/>
<text x="371.48015873015873" y="339.64091001222005" text-anchor="middle" class="label">63.0</text>
<rect x="393.7301587301587" y="485.8204478400688" width="12.007936507936508" height="74.17955215993118" fill="#4caf50" rx="2"/>
<text x="399.73412698412693" y="480.8204478400688" text-anchor="middle" class="label">18.5</text>
<rect x="407.85714285714283" y="516.4642712435439" width="12.007936507936508" height="43.53572875645614" fill="#ff9800" rx="2"/>
<text x="413.8611111111111" y="511.46427124354386" text-anchor="middle" class="label">14.2</text>
<rect x="421.98412698412693" y="426.2460936653159" width="12.007936507936508" height="133.75390633468407" fill="#2196f3" rx="2"/>
<text x="427.9880952380952" y="421.2460936653159" text-anchor="middle" class="label">31.1</text>
<rect x="436.1111111111111" y="399.3695054445751" width="12.007936507936508" height="160.6304945554249" fill="#00bcd4" rx="2"/>
<text x="442.11507936507934" y="394.3695054445751" text-anchor="middle" class="label">39.2</text>
<rect x="450.2380952380952" y="317.11242142066646" width="12.007936507936508" height="242.88757857933354" fill="#f44336" rx="2"/>
<text x="456.24206349206344" y="312.11242142066646" text-anchor="middle" class="label">80.0</text>
<rect x="464.36507936507934" y="355.1189957161102" width="12.007936507936508" height="204.8810042838898" fill="#9c27b0" rx="2"/>
<text x="470.3690476190476" y="350.1189957161102" text-anchor="middle" class="label">57.6</text>
<rect x="492.6190476190476" y="515.7824168573682" width="12.007936507936508" height="44.21758314263184" fill="#4caf50" rx="2"/>
<text x="498.62301587301585" y="510.78241685736816" text-anchor="middle" class="label">14.3</text>
<rect x="506.74603174603175" y="410.001595700617" width="12.007936507936508" height="149.99840429938303" fill="#ff9800" rx="2"/>
<text x="512.75" y="405.001595700617" text-anchor="middle" class="label">35.8</text>
<rect x="520.8730158730159" y="528.1778391575893" width="12.007936507936508" height="31.822160842410653" fill="#2196f3" rx="2"/>
<text x="526.8769841269842" y="523.1778391575893" text-anchor="middle" class="label">12.8</text>
<rect x="535.0" y="81.04015868508088" width="12.007936507936508" height="478.9598413149191" fill="#00bcd4" rx="2"/>
<text x="541.0039682539683" y="76.04015868508088" text-anchor="middle" class="label">618.7</text>
<rect x="549.1269841269841" y="338.1273068351743" width="12.007936507936508" height="221.8726931648257" fill="#f44336" rx="2"/>
<text x="555.1309523809524" y="333.1273068351743" text-anchor="middle" class="label">66.7</text>
<rect x="563.2539682539682" y="385.31969212200863" width="12.007936507936508" height="174.68030787799137" fill="#9c27b0" rx="2"/>
<text x="569.2579365079365" y="380.31969212200863" text-anchor="middle" class="label">44.3</text>
<rect x="591.5079365079365" y="519.7026126751025" width="12.007936507936508" height="40.2973873248975" fill="#4caf50" rx="2"/>
<text x="597.5119047619048" y="514.7026126751025" text-anchor="middle" class="label">13.8</text>
<rect x="605.6349206349206" y="469.6754473394667" width="12.007936507936508" height="90.3245526605333" fill="#ff9800" rx="2"/>
<text x="611.6388888888889" y="464.6754473394667" text-anchor="middle" class="label">21.3</text>
<rect x="619.7619047619048" y="506.41106773032027" width="12.007936507936508" height="53.58893226967973" fill="#2196f3" rx="2"/>
<text x="625.7658730158731" y="501.41106773032027" text-anchor="middle" class="label">15.5</text>
<rect x="633.8888888888889" y="458.3877770774376" width="12.007936507936508" height="101.61222292256241" fill="#00bcd4" rx="2"/>
<text x="639.8928571428572" y="453.3877770774376" text-anchor="middle" class="label">23.5</text>
<rect x="648.015873015873" y="323.8910332032203" width="12.007936507936508" height="236.10896679677973" fill="#f44336" rx="2"/>
<text x="654.0198412698413" y="318.8910332032203" text-anchor="middle" class="label">75.4</text>
<rect x="662.1428571428571" y="387.66940323609754" width="12.007936507936508" height="172.33059676390246" fill="#9c27b0" rx="2"/>
<text x="668.1468253968254" y="382.66940323609754" text-anchor="middle" class="label">43.4</text>
<rect x="690.3968253968253" y="532.5717008722261" width="12.007936507936508" height="27.428299127773926" fill="#4caf50" rx="2"/>
<text x="696.4007936507936" y="527.5717008722261" text-anchor="middle" class="label">12.4</text>
<rect x="704.5238095238094" y="517.0477580546667" width="12.007936507936508" height="42.9522419453333" fill="#ff9800" rx="2"/>
<text x="710.5277777777777" y="512.0477580546667" text-anchor="middle" class="label">14.1</text>
<rect x="718.6507936507936" y="527.9594821682368" width="12.007936507936508" height="32.04051783176317" fill="#2196f3" rx="2"/>
<text x="724.6547619047619" y="522.9594821682368" text-anchor="middle" class="label">12.9</text>
<rect x="732.7777777777777" y="460.6768479815819" width="12.007936507936508" height="99.32315201841811" fill="#00bcd4" rx="2"/>
<text x="738.781746031746" y="455.6768479815819" text-anchor="middle" class="label">23.1</text>
<rect x="746.9047619047618" y="330.9178584017935" width="12.007936507936508" height="229.08214159820648" fill="#f44336" rx="2"/>
<text x="752.9087301587301" y="325.9178584017935" text-anchor="middle" class="label">71.0</text>
<rect x="761.0317460317459" y="392.30887731711744" width="12.007936507936508" height="167.69112268288256" fill="#9c27b0" rx="2"/>
<text x="767.0357142857142" y="387.30887731711744" text-anchor="middle" class="label">41.7</text>
<rect x="789.2857142857142" y="522.7354237573633" width="12.007936507936508" height="37.264576242636736" fill="#4caf50" rx="2"/>
<text x="795.2896825396825" y="517.7354237573633" text-anchor="middle" class="label">13.5</text>
<rect x="803.4126984126983" y="377.3598343311777" width="12.007936507936508" height="182.6401656688223" fill="#ff9800" rx="2"/>
<text x="809.4166666666666" y="372.3598343311777" text-anchor="middle" class="label">47.5</text>
<rect x="817.5396825396825" y="492.996509192461" width="12.007936507936508" height="67.00349080753898" fill="#2196f3" rx="2"/>
<text x="823.5436507936508" y="487.996509192461" text-anchor="middle" class="label">17.4</text>
<rect x="831.6666666666666" y="446.4831037883551" width="12.007936507936508" height="113.5168962116449" fill="#00bcd4" rx="2"/>
<text x="837.6706349206349" y="441.4831037883551" text-anchor="middle" class="label">26.1</text>
<rect x="845.7936507936507" y="343.3908754741534" width="12.007936507936508" height="216.6091245258466" fill="#f44336" rx="2"/>
<text x="851.797619047619" y="338.3908754741534" text-anchor="middle" class="label">63.7</text>
<rect x="859.9206349206348" y="391.43022821724753" width="12.007936507936508" height="168.56977178275247" fill="#9c27b0" rx="2"/>
<text x="865.9246031746031" y="386.43022821724753" text-anchor="middle" class="label">42.0</text>
<rect x="888.1746031746031" y="278.86221995986045" width="12.007936507936508" height="281.13778004013955" fill="#ff9800" rx="2"/>
<text x="894.1785714285714" y="273.86221995986045" text-anchor="middle" class="label">111.4</text>
<rect x="902.3015873015872" y="297.13265844013455" width="12.007936507936508" height="262.86734155986545" fill="#f44336" rx="2"/>
<text x="908.3055555555555" y="292.13265844013455" text-anchor="middle" class="label">95.1</text>
<rect x="916.4285714285714" y="265.7249922017023" width="12.007936507936508" height="294.2750077982977" fill="#9c27b0" rx="2"/>
<text x="922.4325396825398" y="260.7249922017023" text-anchor="middle" class="label">124.9</text>
<text x="139.44444444444446" y="580" text-anchor="middle" transform="rotate(-30 139.44444444444446 580)" class="axis">sum</text>
<text x="238.33333333333331" y="580" text-anchor="middle" transform="rotate(-30 238.33333333333331 580)" class="axis">div3or5</text>
<text x="337.22222222222223" y="580" text-anchor="middle" transform="rotate(-30 337.22222222222223 580)" class="axis">count_div3and5</text>
<text x="436.1111111111111" y="580" text-anchor="middle" transform="rotate(-30 436.1111111111111 580)" class="axis">sum_multiples_3or5</text>
<text x="535.0" y="580" text-anchor="middle" transform="rotate(-30 535.0 580)" class="axis">string_concat</text>
<text x="633.8888888888889" y="580" text-anchor="middle" transform="rotate(-30 633.8888888888889 580)" class="axis">list_grow</text>
<text x="732.7777777777777" y="580" text-anchor="middle" transform="rotate(-30 732.7777777777777 580)" class="axis">count_calls</text>
<text x="831.6666666666666" y="580" text-anchor="middle" transform="rotate(-30 831.6666666666666 580)" class="axis">class_new</text>
<text x="930.5555555555555" y="580" text-anchor="middle" transform="rotate(-30 930.5555555555555 580)" class="axis">try_catch</text>
<text x="1010" y="70" class="axis" font-weight="bold">Language</text>
<rect x="1010" y="70" width="14" height="14" fill="#4caf50" rx="2"/>
<text x="1032" y="82" class="axis">C (Release)</text>
<rect x="1010" y="92" width="14" height="14" fill="#ff9800" rx="2"/>
<text x="1032" y="104" class="axis">Period</text>
<rect x="1010" y="114" width="14" height="14" fill="#2196f3" rx="2"/>
<text x="1032" y="126" class="axis">Rust</text>
<rect x="1010" y="136" width="14" height="14" fill="#00bcd4" rx="2"/>
<text x="1032" y="148" class="axis">Go</text>
<rect x="1010" y="158" width="14" height="14" fill="#f44336" rx="2"/>
<text x="1032" y="170" class="axis">Java</text>
<rect x="1010" y="180" width="14" height="14" fill="#9c27b0" rx="2"/>
<text x="1032" y="192" class="axis">C#</text>
</svg>