<svg xmlns="http://www.w3.org/2000/svg" width="980" height="560" viewBox="0 0 980 560">
<style>
  text { font-family: sans-serif; font-size: 12px; fill: #333; }
  .title { font-size: 18px; font-weight: bold; }
  .axis { font-size: 12px; }
  .label { font-size: 11px; }
  .grid { stroke: #e0e0e0; stroke-width: 1; }
</style>
<rect width="980" height="560" fill="#ffffff"/>
<text x="490" y="32" text-anchor="middle" class="title">Period Benchmark Results (log scale)</text>
<line x1="80" y1="460.0" x2="850" y2="460.0" class="grid"/>
<text x="72" y="464.0" text-anchor="end" class="axis">0.1 ms</text>
<line x1="80" y1="382.1213019699298" x2="850" y2="382.1213019699298" class="grid"/>
<text x="72" y="386.1213019699298" text-anchor="end" class="axis">1 ms</text>
<line x1="80" y1="263.90176984718977" x2="850" y2="263.90176984718977" class="grid"/>
<text x="72" y="267.90176984718977" text-anchor="end" class="axis">10 ms</text>
<line x1="80" y1="145.68223772444975" x2="850" y2="145.68223772444975" class="grid"/>
<text x="72" y="149.68223772444975" text-anchor="end" class="axis">100 ms</text>
<line x1="80" y1="50" x2="80" y2="460" stroke="#333" stroke-width="2"/>
<line x1="80" y1="460" x2="850" y2="460" stroke="#333" stroke-width="2"/>
<rect x="86.11111111111111" y="448.5433436041789" width="10.38888888888889" height="11.456656395821085" fill="#ff9800" rx="2"/>
<text x="91.30555555555556" y="443.5433436041789" text-anchor="middle" class="label">0.3</text>
<rect x="98.33333333333334" y="267.2094529248802" width="10.38888888888889" height="192.79054707511978" fill="#4caf50" rx="2"/>
<text x="103.52777777777779" y="262.2094529248802" text-anchor="middle" class="label">9.4</text>
<rect x="110.55555555555556" y="223.26857705831654" width="10.38888888888889" height="236.73142294168346" fill="#2196f3" rx="2"/>
<text x="115.75" y="218.26857705831654" text-anchor="middle" class="label">22.1</text>
<rect x="122.77777777777777" y="215.23196325342636" width="10.38888888888889" height="244.76803674657364" fill="#00bcd4" rx="2"/>
<text x="127.97222222222221" y="210.23196325342636" text-anchor="middle" class="label">25.8</text>
<rect x="135.0" y="189.36418887478305" width="10.38888888888889" height="270.63581112521695" fill="#9c27b0" rx="2"/>
<text x="140.19444444444446" y="184.36418887478305" text-anchor="middle" class="label">42.7</text>
<rect x="147.22222222222223" y="164.0261279540684" width="10.38888888888889" height="295.9738720459316" fill="#f44336" rx="2"/>
<text x="152.41666666666669" y="159.0261279540684" text-anchor="middle" class="label">70.0</text>
<rect x="171.66666666666666" y="424.167249154202" width="10.38888888888889" height="35.83275084579799" fill="#ff9800" rx="2"/>
<text x="176.86111111111111" y="419.167249154202" text-anchor="middle" class="label">0.4</text>
<rect x="183.88888888888889" y="239.12016893470846" width="10.38888888888889" height="220.87983106529154" fill="#4caf50" rx="2"/>
<text x="189.08333333333334" y="234.12016893470846" text-anchor="middle" class="label">16.2</text>
<rect x="196.1111111111111" y="200.8241574037982" width="10.38888888888889" height="259.1758425962018" fill="#2196f3" rx="2"/>
<text x="201.30555555555554" y="195.8241574037982" text-anchor="middle" class="label">34.2</text>
<rect x="208.33333333333331" y="198.4694120475885" width="10.38888888888889" height="261.5305879524115" fill="#00bcd4" rx="2"/>
<text x="213.52777777777777" y="193.4694120475885" text-anchor="middle" class="label">35.8</text>
<rect x="220.55555555555554" y="177.6898864095404" width="10.38888888888889" height="282.3101135904596" fill="#9c27b0" rx="2"/>
<text x="225.75" y="172.6898864095404" text-anchor="middle" class="label">53.6</text>
<rect x="232.77777777777777" y="153.5389908817529" width="10.38888888888889" height="306.4610091182471" fill="#f44336" rx="2"/>
<text x="237.97222222222223" y="148.5389908817529" text-anchor="middle" class="label">85.8</text>
<rect x="257.22222222222223" y="414.1326091551534" width="10.38888888888889" height="45.867390844846625" fill="#ff9800" rx="2"/>
<text x="262.4166666666667" y="409.1326091551534" text-anchor="middle" class="label">0.5</text>
<rect x="269.44444444444446" y="222.62190011059764" width="10.38888888888889" height="237.37809988940236" fill="#4caf50" rx="2"/>
<text x="274.6388888888889" y="217.62190011059764" text-anchor="middle" class="label">22.3</text>
<rect x="281.6666666666667" y="185.69809931340927" width="10.38888888888889" height="274.3019006865907" fill="#2196f3" rx="2"/>
<text x="286.86111111111114" y="180.69809931340927" text-anchor="middle" class="label">45.9</text>
<rect x="293.8888888888889" y="207.58438275339097" width="10.38888888888889" height="252.41561724660903" fill="#00bcd4" rx="2"/>
<text x="299.08333333333337" y="202.58438275339097" text-anchor="middle" class="label">29.9</text>
<rect x="306.11111111111114" y="177.5417840911743" width="10.38888888888889" height="282.4582159088257" fill="#9c27b0" rx="2"/>
<text x="311.3055555555556" y="172.5417840911743" text-anchor="middle" class="label">53.8</text>
<rect x="318.33333333333337" y="160.93922159068774" width="10.38888888888889" height="299.06077840931226" fill="#f44336" rx="2"/>
<text x="323.5277777777778" y="155.93922159068774" text-anchor="middle" class="label">74.3</text>
<rect x="342.77777777777777" y="417.17366202197366" width="10.38888888888889" height="42.826337978026345" fill="#ff9800" rx="2"/>
<text x="347.97222222222223" y="412.17366202197366" text-anchor="middle" class="label">0.5</text>
<rect x="355.0" y="229.82468470017247" width="10.38888888888889" height="230.17531529982753" fill="#4caf50" rx="2"/>
<text x="360.19444444444446" y="224.82468470017247" text-anchor="middle" class="label">19.4</text>
<rect x="367.22222222222223" y="208.42284671661685" width="10.38888888888889" height="251.57715328338315" fill="#2196f3" rx="2"/>
<text x="372.4166666666667" y="203.42284671661685" text-anchor="middle" class="label">29.5</text>
<rect x="379.44444444444446" y="199.2465085560333" width="10.38888888888889" height="260.7534914439667" fill="#00bcd4" rx="2"/>
<text x="384.6388888888889" y="194.2465085560333" text-anchor="middle" class="label">35.2</text>
<rect x="391.6666666666667" y="176.10643745253583" width="10.38888888888889" height="283.89356254746417" fill="#9c27b0" rx="2"/>
<text x="396.86111111111114" y="171.10643745253583" text-anchor="middle" class="label">55.3</text>
<rect x="403.8888888888889" y="159.56698281874787" width="10.38888888888889" height="300.4330171812521" fill="#f44336" rx="2"/>
<text x="409.08333333333337" y="154.56698281874787" text-anchor="middle" class="label">76.3</text>
<rect x="428.3333333333333" y="348.623145915228" width="10.38888888888889" height="111.37685408477199" fill="#ff9800" rx="2"/>
<text x="433.52777777777777" y="343.623145915228" text-anchor="middle" class="label">1.9</text>
<rect x="440.55555555555554" y="261.68726823191827" width="10.38888888888889" height="198.31273176808173" fill="#4caf50" rx="2"/>
<text x="445.75" y="256.68726823191827" text-anchor="middle" class="label">10.4</text>
<rect x="452.77777777777777" y="253.69605456746146" width="10.38888888888889" height="206.30394543253854" fill="#2196f3" rx="2"/>
<text x="457.97222222222223" y="248.69605456746146" text-anchor="middle" class="label">12.2</text>
<rect x="465.0" y="59.360769860645746" width="10.38888888888889" height="400.63923013935425" fill="#00bcd4" rx="2"/>
<text x="470.19444444444446" y="74.36076986064575" text-anchor="middle" class="label">537.3</text>
<rect x="477.22222222222223" y="192.96656482663917" width="10.38888888888889" height="267.03343517336083" fill="#9c27b0" rx="2"/>
<text x="482.4166666666667" y="187.96656482663917" text-anchor="middle" class="label">39.8</text>
<rect x="489.44444444444446" y="169.89137996457532" width="10.38888888888889" height="290.1086200354247" fill="#f44336" rx="2"/>
<text x="494.6388888888889" y="164.89137996457532" text-anchor="middle" class="label">62.4</text>
<rect x="513.8888888888889" y="357.7933652732465" width="10.38888888888889" height="102.20663472675352" fill="#ff9800" rx="2"/>
<text x="519.0833333333334" y="352.7933652732465" text-anchor="middle" class="label">1.6</text>
<rect x="526.1111111111111" y="254.80132145095442" width="10.38888888888889" height="205.19867854904558" fill="#4caf50" rx="2"/>
<text x="531.3055555555555" y="249.80132145095442" text-anchor="middle" class="label">11.9</text>
<rect x="538.3333333333334" y="253.99299163505896" width="10.38888888888889" height="206.00700836494104" fill="#2196f3" rx="2"/>
<text x="543.5277777777778" y="248.99299163505896" text-anchor="middle" class="label">12.1</text>
<rect x="550.5555555555555" y="211.67371189776648" width="10.38888888888889" height="248.32628810223352" fill="#00bcd4" rx="2"/>
<text x="555.75" y="206.67371189776648" text-anchor="middle" class="label">27.7</text>
<rect x="562.7777777777778" y="190.53368376053209" width="10.38888888888889" height="269.4663162394679" fill="#9c27b0" rx="2"/>
<text x="567.9722222222223" y="185.53368376053209" text-anchor="middle" class="label">41.7</text>
<rect x="575.0" y="156.88662302394636" width="10.38888888888889" height="303.11337697605364" fill="#f44336" rx="2"/>
<text x="580.1944444444445" y="151.88662302394636" text-anchor="middle" class="label">80.4</text>
<rect x="599.4444444444445" y="418.7042815744834" width="10.38888888888889" height="41.29571842551661" fill="#ff9800" rx="2"/>
<text x="604.6388888888889" y="413.7042815744834" text-anchor="middle" class="label">0.5</text>
<rect x="611.6666666666667" y="256.2993280130564" width="10.38888888888889" height="203.70067198694358" fill="#4caf50" rx="2"/>
<text x="616.8611111111112" y="251.29932801305642" text-anchor="middle" class="label">11.6</text>
<rect x="623.8888888888889" y="255.13031077956464" width="10.38888888888889" height="204.86968922043536" fill="#2196f3" rx="2"/>
<text x="629.0833333333334" y="250.13031077956464" text-anchor="middle" class="label">11.9</text>
<rect x="636.1111111111112" y="213.88746701393822" width="10.38888888888889" height="246.11253298606178" fill="#00bcd4" rx="2"/>
<text x="641.3055555555557" y="208.88746701393822" text-anchor="middle" class="label">26.5</text>
<rect x="648.3333333333334" y="185.0775316400817" width="10.38888888888889" height="274.9224683599183" fill="#9c27b0" rx="2"/>
<text x="653.5277777777778" y="180.0775316400817" text-anchor="middle" class="label">46.4</text>
<rect x="660.5555555555557" y="165.8085130044508" width="10.38888888888889" height="294.1914869955492" fill="#f44336" rx="2"/>
<text x="665.7500000000001" y="160.8085130044508" text-anchor="middle" class="label">67.6</text>
<rect x="685.0" y="355.3260642098628" width="10.38888888888889" height="104.6739357901372" fill="#ff9800" rx="2"/>
<text x="690.1944444444445" y="350.3260642098628" text-anchor="middle" class="label">1.7</text>
<rect x="697.2222222222223" y="252.72798525141894" width="10.38888888888889" height="207.27201474858106" fill="#4caf50" rx="2"/>
<text x="702.4166666666667" y="247.72798525141894" text-anchor="middle" class="label">12.4</text>
<rect x="709.4444444444445" y="254.8637561174697" width="10.38888888888889" height="205.1362438825303" fill="#2196f3" rx="2"/>
<text x="714.6388888888889" y="249.8637561174697" text-anchor="middle" class="label">11.9</text>
<rect x="721.6666666666667" y="218.59453110910457" width="10.38888888888889" height="241.40546889089543" fill="#00bcd4" rx="2"/>
<text x="726.8611111111112" y="213.59453110910457" text-anchor="middle" class="label">24.2</text>
<rect x="733.8888888888889" y="181.54384558448476" width="10.38888888888889" height="278.45615441551524" fill="#9c27b0" rx="2"/>
<text x="739.0833333333334" y="176.54384558448476" text-anchor="middle" class="label">49.7</text>
<rect x="746.1111111111111" y="167.10243284581225" width="10.38888888888889" height="292.89756715418775" fill="#f44336" rx="2"/>
<text x="751.3055555555555" y="162.10243284581225" text-anchor="middle" class="label">65.9</text>
<rect x="770.5555555555555" y="424.5611875391089" width="10.38888888888889" height="35.438812460891086" fill="#ff9800" rx="2"/>
<text x="775.75" y="419.5611875391089" text-anchor="middle" class="label">0.4</text>
<rect x="782.7777777777778" y="198.69951473451613" width="10.38888888888889" height="261.30048526548387" fill="#4caf50" rx="2"/>
<text x="787.9722222222223" y="193.69951473451613" text-anchor="middle" class="label">35.6</text>
<rect x="795.0" y="115.10750169893157" width="10.38888888888889" height="344.89249830106843" fill="#2196f3" rx="2"/>
<text x="800.1944444444445" y="110.10750169893157" text-anchor="middle" class="label">181.4</text>
<rect x="807.2222222222223" y="204.2658549271115" width="10.38888888888889" height="255.7341450728885" fill="#00bcd4" rx="2"/>
<text x="812.4166666666667" y="199.2658549271115" text-anchor="middle" class="label">31.9</text>
<rect x="819.4444444444445" y="129.7196789053196" width="10.38888888888889" height="330.2803210946804" fill="#9c27b0" rx="2"/>
<text x="824.6388888888889" y="124.7196789053196" text-anchor="middle" class="label">136.5</text>
<rect x="831.6666666666667" y="151.60585700983887" width="10.38888888888889" height="308.39414299016113" fill="#f44336" rx="2"/>
<text x="836.8611111111112" y="146.60585700983887" text-anchor="middle" class="label">89.1</text>
<text x="122.77777777777777" y="480" text-anchor="middle" transform="rotate(-30 122.77777777777777 480)" class="axis">sum</text>
<text x="208.33333333333331" y="480" text-anchor="middle" transform="rotate(-30 208.33333333333331 480)" class="axis">div3or5</text>
<text x="293.8888888888889" y="480" text-anchor="middle" transform="rotate(-30 293.8888888888889 480)" class="axis">count_div3and5</text>
<text x="379.44444444444446" y="480" text-anchor="middle" transform="rotate(-30 379.44444444444446 480)" class="axis">sum_multiples_3or5</text>
<text x="465.0" y="480" text-anchor="middle" transform="rotate(-30 465.0 480)" class="axis">string_concat</text>
<text x="550.5555555555555" y="480" text-anchor="middle" transform="rotate(-30 550.5555555555555 480)" class="axis">list_grow</text>
<text x="636.1111111111112" y="480" text-anchor="middle" transform="rotate(-30 636.1111111111112 480)" class="axis">count_calls</text>
<text x="721.6666666666667" y="480" text-anchor="middle" transform="rotate(-30 721.6666666666667 480)" class="axis">class_new</text>
<text x="807.2222222222223" y="480" text-anchor="middle" transform="rotate(-30 807.2222222222223 480)" class="axis">try_catch</text>
<text x="880" y="60" class="axis" font-weight="bold">Language</text>
<rect x="880" y="60" width="14" height="14" fill="#ff9800" rx="2"/>
<text x="902" y="72" class="axis">Period</text>
<rect x="880" y="82" width="14" height="14" fill="#4caf50" rx="2"/>
<text x="902" y="94" class="axis">C (Release)</text>
<rect x="880" y="104" width="14" height="14" fill="#2196f3" rx="2"/>
<text x="902" y="116" class="axis">Rust</text>
<rect x="880" y="126" width="14" height="14" fill="#00bcd4" rx="2"/>
<text x="902" y="138" class="axis">Go</text>
<rect x="880" y="148" width="14" height="14" fill="#9c27b0" rx="2"/>
<text x="902" y="160" class="axis">C#</text>
<rect x="880" y="170" width="14" height="14" fill="#f44336" rx="2"/>
<text x="902" y="182" class="axis">Java</text>
</svg>